<svg xmlns="http://www.w3.org/2000/svg" xmlns:xlink="http://www.w3.org/1999/xlink" xmlns:lucid="lucid" width="1866" height="862"><g transform="translate(-1595 1440.9999999999993)" lucid:page-tab-id="0_0"><path d="M1500-1500h2000v1000H1500z" fill="#fff"/><path d="M1616-1414a6 6 0 0 1 6-6h1812a6 6 0 0 1 6 6v808a6 6 0 0 1-6 6H1622a6 6 0 0 1-6-6z" fill="#fff"/><path d="M1617-1414c0 .55-.45 1-1 1s-1-.45-1-1 .45-1 1-1 1 .45 1 1zm6-6c0 .55-.45 1-1 1s-1-.45-1-1 .45-1 1-1 1 .45 1 1zm7.98 0c0 .55-.44 1-1 1-.55 0-1-.45-1-1s.45-1 1-1c.56 0 1 .45 1 1zm7.98 0c0 .55-.44 1-1 1-.55 0-1-.45-1-1s.45-1 1-1c.56 0 1 .45 1 1zm8 0c0 .55-.46 1-1 1-.57 0-1-.45-1-1s.43-1 1-1c.54 0 1 .45 1 1zm7.97 0c0 .55-.45 1-1 1s-1-.45-1-1 .45-1 1-1 1 .45 1 1zm7.98 0c0 .55-.44 1-1 1-.54 0-1-.45-1-1s.46-1 1-1c.56 0 1 .45 1 1zm8 0c0 .55-.45 1-1 1-.56 0-1-.45-1-1s.44-1 1-1c.55 0 1 .45 1 1zm7.98 0c0 .55-.45 1-1 1-.56 0-1-.45-1-1s.44-1 1-1c.55 0 1 .45 1 1zm7.98 0c0 .55-.45 1-1 1s-1-.45-1-1 .45-1 1-1 1 .45 1 1zm7.98 0c0 .55-.45 1-1 1s-1-.45-1-1 .45-1 1-1 1 .45 1 1zm7.98 0c0 .55-.44 1-1 1-.55 0-1-.45-1-1s.45-1 1-1c.56 0 1 .45 1 1zm8 0c0 .55-.46 1-1 1-.57 0-1-.45-1-1s.43-1 1-1c.54 0 1 .45 1 1zm7.97 0c0 .55-.46 1-1 1-.56 0-1-.45-1-1s.44-1 1-1c.54 0 1 .45 1 1zm7.97 0c0 .55-.45 1-1 1s-1-.45-1-1 .45-1 1-1 1 .45 1 1zm7.98 0c0 .55-.44 1-1 1-.55 0-1-.45-1-1s.45-1 1-1c.56 0 1 .45 1 1zm8 0c0 .55-.46 1-1 1-.57 0-1-.45-1-1s.43-1 1-1c.54 0 1 .45 1 1zm7.97 0c0 .55-.45 1-1 1s-1-.45-1-1 .45-1 1-1 1 .45 1 1zm7.98 0c0 .55-.45 1-1 1s-1-.45-1-1 .45-1 1-1 1 .45 1 1zm7.98 0c0 .55-.45 1-1 1s-1-.45-1-1 .45-1 1-1 1 .45 1 1zm7.98 0c0 .55-.44 1-1 1-.55 0-1-.45-1-1s.45-1 1-1c.56 0 1 .45 1 1zm8 0c0 .55-.46 1-1 1-.57 0-1-.45-1-1s.43-1 1-1c.54 0 1 .45 1 1zm7.97 0c0 .55-.45 1-1 1s-1-.45-1-1 .45-1 1-1 1 .45 1 1zm7.98 0c0 .55-.43 1-1 1-.54 0-1-.45-1-1s.46-1 1-1c.57 0 1 .45 1 1zm8 0c0 .55-.45 1-1 1-.56 0-1-.45-1-1s.44-1 1-1c.55 0 1 .45 1 1zm7.98 0c0 .55-.45 1-1 1s-1-.45-1-1 .45-1 1-1 1 .45 1 1zm7.98 0c0 .55-.45 1-1 1s-1-.45-1-1 .45-1 1-1 1 .45 1 1zm7.98 0c0 .55-.45 1-1 1s-1-.45-1-1 .45-1 1-1 1 .45 1 1zm7.98 0c0 .55-.44 1-1 1-.55 0-1-.45-1-1s.45-1 1-1c.56 0 1 .45 1 1zm8 0c0 .55-.46 1-1 1-.57 0-1-.45-1-1s.43-1 1-1c.54 0 1 .45 1 1zm7.97 0c0 .55-.46 1-1 1-.56 0-1-.45-1-1s.44-1 1-1c.54 0 1 .45 1 1zm7.97 0c0 .55-.45 1-1 1s-1-.45-1-1 .45-1 1-1 1 .45 1 1zm7.98 0c0 .55-.44 1-1 1-.55 0-1-.45-1-1s.45-1 1-1c.56 0 1 .45 1 1zm8 0c0 .55-.46 1-1 1-.57 0-1-.45-1-1s.43-1 1-1c.54 0 1 .45 1 1zm7.97 0c0 .55-.45 1-1 1s-1-.45-1-1 .45-1 1-1 1 .45 1 1zm7.98 0c0 .55-.45 1-1 1s-1-.45-1-1 .45-1 1-1 1 .45 1 1zm7.98 0c0 .55-.44 1-1 1-.55 0-1-.45-1-1s.45-1 1-1c.56 0 1 .45 1 1zm8 0c0 .55-.46 1-1 1-.57 0-1-.45-1-1s.43-1 1-1c.54 0 1 .45 1 1zm7.97 0c0 .55-.45 1-1 1s-1-.45-1-1 .45-1 1-1 1 .45 1 1zm7.98 0c0 .55-.45 1-1 1s-1-.45-1-1 .45-1 1-1 1 .45 1 1zm7.98 0c0 .55-.43 1-1 1-.54 0-1-.45-1-1s.46-1 1-1c.57 0 1 .45 1 1zm8 0c0 .55-.45 1-1 1-.56 0-1-.45-1-1s.44-1 1-1c.55 0 1 .45 1 1zm7.98 0c0 .55-.45 1-1 1-.56 0-1-.45-1-1s.44-1 1-1c.55 0 1 .45 1 1zm7.98 0c0 .55-.45 1-1 1s-1-.45-1-1 .45-1 1-1 1 .45 1 1zm7.98 0c0 .55-.44 1-1 1-.55 0-1-.45-1-1s.45-1 1-1c.56 0 1 .45 1 1zm7.98 0c0 .55-.44 1-1 1-.55 0-1-.45-1-1s.45-1 1-1c.56 0 1 .45 1 1zm8 0c0 .55-.46 1-1 1-.57 0-1-.45-1-1s.43-1 1-1c.54 0 1 .45 1 1zm7.97 0c0 .55-.46 1-1 1-.56 0-1-.45-1-1s.44-1 1-1c.54 0 1 .45 1 1zm7.97 0c0 .55-.45 1-1 1s-1-.45-1-1 .45-1 1-1 1 .45 1 1zm7.98 0c0 .55-.44 1-1 1-.55 0-1-.45-1-1s.45-1 1-1c.56 0 1 .45 1 1zm8 0c0 .55-.46 1-1 1-.57 0-1-.45-1-1s.43-1 1-1c.54 0 1 .45 1 1zm7.97 0c0 .55-.45 1-1 1s-1-.45-1-1 .45-1 1-1 1 .45 1 1zm7.98 0c0 .55-.45 1-1 1s-1-.45-1-1 .45-1 1-1 1 .45 1 1zm7.98 0c0 .55-.44 1-1 1-.55 0-1-.45-1-1s.45-1 1-1c.56 0 1 .45 1 1zm8 0c0 .55-.46 1-1 1-.57 0-1-.45-1-1s.43-1 1-1c.54 0 1 .45 1 1zm7.97 0c0 .55-.45 1-1 1s-1-.45-1-1 .45-1 1-1 1 .45 1 1zm7.98 0c0 .55-.45 1-1 1s-1-.45-1-1 .45-1 1-1 1 .45 1 1zm7.98 0c0 .55-.43 1-1 1-.54 0-1-.45-1-1s.46-1 1-1c.57 0 1 .45 1 1zm8 0c0 .55-.45 1-1 1-.56 0-1-.45-1-1s.44-1 1-1c.55 0 1 .45 1 1zm7.98 0c0 .55-.45 1-1 1s-1-.45-1-1 .45-1 1-1 1 .45 1 1zm7.98 0c0 .55-.45 1-1 1s-1-.45-1-1 .45-1 1-1 1 .45 1 1zm7.98 0c0 .55-.45 1-1 1s-1-.45-1-1 .45-1 1-1 1 .45 1 1zm8 0c0 .55-.46 1-1 1-.57 0-1-.45-1-1s.43-1 1-1c.54 0 1 .45 1 1zm7.97 0c0 .55-.44 1-1 1-.55 0-1-.45-1-1s.45-1 1-1c.56 0 1 .45 1 1zm8 0c0 .55-.46 1-1 1-.56 0-1-.45-1-1s.44-1 1-1c.54 0 1 .45 1 1zm7.97 0c0 .55-.44 1-1 1-.55 0-1-.45-1-1s.45-1 1-1c.56 0 1 .45 1 1zm8 0c0 .55-.46 1-1 1-.57 0-1-.45-1-1s.43-1 1-1c.54 0 1 .45 1 1zm7.97 0c0 .55-.45 1-1 1-.56 0-1-.45-1-1s.44-1 1-1c.55 0 1 .45 1 1zm7.98 0c0 .55-.45 1-1 1s-1-.45-1-1 .45-1 1-1 1 .45 1 1zm7.98 0c0 .55-.45 1-1 1s-1-.45-1-1 .45-1 1-1 1 .45 1 1zm7.98 0c0 .55-.44 1-1 1-.55 0-1-.45-1-1s.45-1 1-1c.56 0 1 .45 1 1zm8 0c0 .55-.46 1-1 1-.57 0-1-.45-1-1s.43-1 1-1c.54 0 1 .45 1 1zm7.97 0c0 .55-.45 1-1 1s-1-.45-1-1 .45-1 1-1 1 .45 1 1zm7.98 0c0 .55-.45 1-1 1s-1-.45-1-1 .45-1 1-1 1 .45 1 1zm7.98 0c0 .55-.43 1-1 1-.54 0-1-.45-1-1s.46-1 1-1c.57 0 1 .45 1 1zm8 0c0 .55-.45 1-1 1-.56 0-1-.45-1-1s.44-1 1-1c.55 0 1 .45 1 1zm7.98 0c0 .55-.45 1-1 1s-1-.45-1-1 .45-1 1-1 1 .45 1 1zm7.98 0c0 .55-.45 1-1 1s-1-.45-1-1 .45-1 1-1 1 .45 1 1zm7.98 0c0 .55-.44 1-1 1-.55 0-1-.45-1-1s.45-1 1-1c.56 0 1 .45 1 1zm8 0c0 .55-.46 1-1 1-.57 0-1-.45-1-1s.43-1 1-1c.54 0 1 .45 1 1zm7.97 0c0 .55-.44 1-1 1-.54 0-1-.45-1-1s.46-1 1-1c.56 0 1 .45 1 1zm8 0c0 .55-.46 1-1 1-.56 0-1-.45-1-1s.44-1 1-1c.54 0 1 .45 1 1zm7.97 0c0 .55-.45 1-1 1s-1-.45-1-1 .45-1 1-1 1 .45 1 1zm7.98 0c0 .55-.44 1-1 1-.55 0-1-.45-1-1s.45-1 1-1c.56 0 1 .45 1 1zm8 0c0 .55-.46 1-1 1-.57 0-1-.45-1-1s.43-1 1-1c.54 0 1 .45 1 1zm7.97 0c0 .55-.45 1-1 1s-1-.45-1-1 .45-1 1-1 1 .45 1 1zm7.98 0c0 .55-.45 1-1 1s-1-.45-1-1 .45-1 1-1 1 .45 1 1zm8 0c0 .55-.46 1-1 1-.57 0-1-.45-1-1s.43-1 1-1c.54 0 1 .45 1 1zm7.97 0c0 .55-.45 1-1 1s-1-.45-1-1 .45-1 1-1 1 .45 1 1zm7.98 0c0 .55-.45 1-1 1s-1-.45-1-1 .45-1 1-1 1 .45 1 1zm7.98 0c0 .55-.45 1-1 1s-1-.45-1-1 .45-1 1-1 1 .45 1 1zm7.98 0c0 .55-.43 1-1 1-.54 0-1-.45-1-1s.46-1 1-1c.57 0 1 .45 1 1zm8 0c0 .55-.45 1-1 1-.56 0-1-.45-1-1s.44-1 1-1c.55 0 1 .45 1 1zm7.98 0c0 .55-.45 1-1 1s-1-.45-1-1 .45-1 1-1 1 .45 1 1zm7.98 0c0 .55-.45 1-1 1s-1-.45-1-1 .45-1 1-1 1 .45 1 1zm7.98 0c0 .55-.44 1-1 1-.55 0-1-.45-1-1s.45-1 1-1c.56 0 1 .45 1 1zm8 0c0 .55-.46 1-1 1-.57 0-1-.45-1-1s.43-1 1-1c.54 0 1 .45 1 1zm7.97 0c0 .55-.44 1-1 1-.54 0-1-.45-1-1s.46-1 1-1c.56 0 1 .45 1 1zm8 0c0 .55-.46 1-1 1-.56 0-1-.45-1-1s.44-1 1-1c.54 0 1 .45 1 1zm7.97 0c0 .55-.45 1-1 1s-1-.45-1-1 .45-1 1-1 1 .45 1 1zm8 0c0 .55-.46 1-1 1-.57 0-1-.45-1-1s.43-1 1-1c.54 0 1 .45 1 1zm7.97 0c0 .55-.45 1-1 1s-1-.45-1-1 .45-1 1-1 1 .45 1 1zm7.98 0c0 .55-.45 1-1 1s-1-.45-1-1 .45-1 1-1 1 .45 1 1zm7.98 0c0 .55-.44 1-1 1-.55 0-1-.45-1-1s.45-1 1-1c.56 0 1 .45 1 1zm8 0c0 .55-.46 1-1 1-.57 0-1-.45-1-1s.43-1 1-1c.54 0 1 .45 1 1zm7.97 0c0 .55-.45 1-1 1-.56 0-1-.45-1-1s.44-1 1-1c.55 0 1 .45 1 1zm7.98 0c0 .55-.45 1-1 1s-1-.45-1-1 .45-1 1-1 1 .45 1 1zm7.98 0c0 .55-.45 1-1 1s-1-.45-1-1 .45-1 1-1 1 .45 1 1zm7.98 0c0 .55-.43 1-1 1-.54 0-1-.45-1-1s.46-1 1-1c.57 0 1 .45 1 1zm8 0c0 .55-.45 1-1 1s-1-.45-1-1 .45-1 1-1 1 .45 1 1zm7.98 0c0 .55-.45 1-1 1s-1-.45-1-1 .45-1 1-1 1 .45 1 1zm7.98 0c0 .55-.45 1-1 1s-1-.45-1-1 .45-1 1-1 1 .45 1 1zm7.98 0c0 .55-.44 1-1 1-.55 0-1-.45-1-1s.45-1 1-1c.56 0 1 .45 1 1zm8 0c0 .55-.46 1-1 1-.57 0-1-.45-1-1s.43-1 1-1c.54 0 1 .45 1 1zm7.97 0c0 .55-.44 1-1 1-.54 0-1-.45-1-1s.46-1 1-1c.56 0 1 .45 1 1zm8 0c0 .55-.46 1-1 1-.56 0-1-.45-1-1s.44-1 1-1c.54 0 1 .45 1 1zm7.97 0c0 .55-.44 1-1 1-.55 0-1-.45-1-1s.45-1 1-1c.56 0 1 .45 1 1zm8 0c0 .55-.46 1-1 1-.57 0-1-.45-1-1s.43-1 1-1c.54 0 1 .45 1 1zm7.97 0c0 .55-.45 1-1 1s-1-.45-1-1 .45-1 1-1 1 .45 1 1zm7.98 0c0 .55-.45 1-1 1s-1-.45-1-1 .45-1 1-1 1 .45 1 1zm7.98 0c0 .55-.45 1-1 1s-1-.45-1-1 .45-1 1-1 1 .45 1 1zm8 0c0 .55-.46 1-1 1-.57 0-1-.45-1-1s.43-1 1-1c.54 0 1 .45 1 1zm7.97 0c0 .55-.45 1-1 1s-1-.45-1-1 .45-1 1-1 1 .45 1 1zm7.98 0c0 .55-.45 1-1 1s-1-.45-1-1 .45-1 1-1 1 .45 1 1zm7.98 0c0 .55-.44 1-1 1-.55 0-1-.45-1-1s.45-1 1-1c.56 0 1 .45 1 1zm8 0c0 .55-.46 1-1 1-.57 0-1-.45-1-1s.43-1 1-1c.54 0 1 .45 1 1zm7.97 0c0 .55-.45 1-1 1-.56 0-1-.45-1-1s.44-1 1-1c.55 0 1 .45 1 1zm7.98 0c0 .55-.45 1-1 1s-1-.45-1-1 .45-1 1-1 1 .45 1 1zm7.98 0c0 .55-.45 1-1 1s-1-.45-1-1 .45-1 1-1 1 .45 1 1zm7.98 0c0 .55-.44 1-1 1-.55 0-1-.45-1-1s.45-1 1-1c.56 0 1 .45 1 1zm8 0c0 .55-.46 1-1 1-.56 0-1-.45-1-1s.44-1 1-1c.54 0 1 .45 1 1zm7.97 0c0 .55-.44 1-1 1-.54 0-1-.45-1-1s.46-1 1-1c.56 0 1 .45 1 1zm8 0c0 .55-.46 1-1 1-.56 0-1-.45-1-1s.44-1 1-1c.54 0 1 .45 1 1zm7.97 0c0 .55-.44 1-1 1-.55 0-1-.45-1-1s.45-1 1-1c.56 0 1 .45 1 1zm8 0c0 .55-.46 1-1 1-.57 0-1-.45-1-1s.43-1 1-1c.54 0 1 .45 1 1zm7.97 0c0 .55-.45 1-1 1s-1-.45-1-1 .45-1 1-1 1 .45 1 1zm7.98 0c0 .55-.45 1-1 1s-1-.45-1-1 .45-1 1-1 1 .45 1 1zm7.98 0c0 .55-.44 1-1 1-.55 0-1-.45-1-1s.45-1 1-1c.56 0 1 .45 1 1zm8 0c0 .55-.46 1-1 1-.57 0-1-.45-1-1s.43-1 1-1c.54 0 1 .45 1 1zm7.97 0c0 .55-.45 1-1 1s-1-.45-1-1 .45-1 1-1 1 .45 1 1zm7.98 0c0 .55-.45 1-1 1s-1-.45-1-1 .45-1 1-1 1 .45 1 1zm7.98 0c0 .55-.45 1-1 1s-1-.45-1-1 .45-1 1-1 1 .45 1 1zm7.98 0c0 .55-.43 1-1 1-.54 0-1-.45-1-1s.46-1 1-1c.57 0 1 .45 1 1zm8 0c0 .55-.45 1-1 1s-1-.45-1-1 .45-1 1-1 1 .45 1 1zm7.98 0c0 .55-.45 1-1 1s-1-.45-1-1 .45-1 1-1 1 .45 1 1zm7.98 0c0 .55-.45 1-1 1s-1-.45-1-1 .45-1 1-1 1 .45 1 1zm8 0c0 .55-.46 1-1 1-.57 0-1-.45-1-1s.43-1 1-1c.54 0 1 .45 1 1zm7.97 0c0 .55-.45 1-1 1s-1-.45-1-1 .45-1 1-1 1 .45 1 1zm7.98 0c0 .55-.44 1-1 1-.54 0-1-.45-1-1s.46-1 1-1c.56 0 1 .45 1 1zm8 0c0 .55-.46 1-1 1-.56 0-1-.45-1-1s.44-1 1-1c.54 0 1 .45 1 1zm7.97 0c0 .55-.44 1-1 1-.55 0-1-.45-1-1s.45-1 1-1c.56 0 1 .45 1 1zm8 0c0 .55-.46 1-1 1-.57 0-1-.45-1-1s.43-1 1-1c.54 0 1 .45 1 1zm7.97 0c0 .55-.45 1-1 1s-1-.45-1-1 .45-1 1-1 1 .45 1 1zm7.98 0c0 .55-.45 1-1 1s-1-.45-1-1 .45-1 1-1 1 .45 1 1zm7.98 0c0 .55-.44 1-1 1-.55 0-1-.45-1-1s.45-1 1-1c.56 0 1 .45 1 1zm8 0c0 .55-.46 1-1 1-.57 0-1-.45-1-1s.43-1 1-1c.54 0 1 .45 1 1zm7.97 0c0 .55-.45 1-1 1s-1-.45-1-1 .45-1 1-1 1 .45 1 1zm7.98 0c0 .55-.45 1-1 1s-1-.45-1-1 .45-1 1-1 1 .45 1 1zm7.98 0c0 .55-.44 1-1 1-.55 0-1-.45-1-1s.45-1 1-1c.56 0 1 .45 1 1zm8 0c0 .55-.46 1-1 1-.57 0-1-.45-1-1s.43-1 1-1c.54 0 1 .45 1 1zm7.97 0c0 .55-.45 1-1 1s-1-.45-1-1 .45-1 1-1 1 .45 1 1zm7.98 0c0 .55-.45 1-1 1s-1-.45-1-1 .45-1 1-1 1 .45 1 1zm7.98 0c0 .55-.44 1-1 1-.55 0-1-.45-1-1s.45-1 1-1c.56 0 1 .45 1 1zm8 0c0 .55-.46 1-1 1-.57 0-1-.45-1-1s.43-1 1-1c.54 0 1 .45 1 1zm7.97 0c0 .55-.45 1-1 1-.56 0-1-.45-1-1s.44-1 1-1c.55 0 1 .45 1 1zm7.98 0c0 .55-.44 1-1 1-.54 0-1-.45-1-1s.46-1 1-1c.56 0 1 .45 1 1zm8 0c0 .55-.45 1-1 1-.56 0-1-.45-1-1s.44-1 1-1c.55 0 1 .45 1 1zm7.97 0c0 .55-.44 1-1 1-.55 0-1-.45-1-1s.45-1 1-1c.56 0 1 .45 1 1zm8 0c0 .55-.46 1-1 1-.57 0-1-.45-1-1s.43-1 1-1c.54 0 1 .45 1 1zm7.97 0c0 .55-.45 1-1 1s-1-.45-1-1 .45-1 1-1 1 .45 1 1zm7.98 0c0 .55-.45 1-1 1s-1-.45-1-1 .45-1 1-1 1 .45 1 1zm7.98 0c0 .55-.44 1-1 1-.55 0-1-.45-1-1s.45-1 1-1c.56 0 1 .45 1 1zm8 0c0 .55-.46 1-1 1-.57 0-1-.45-1-1s.43-1 1-1c.54 0 1 .45 1 1zm7.97 0c0 .55-.45 1-1 1s-1-.45-1-1 .45-1 1-1 1 .45 1 1zm7.98 0c0 .55-.45 1-1 1s-1-.45-1-1 .45-1 1-1 1 .45 1 1zm7.98 0c0 .55-.44 1-1 1-.55 0-1-.45-1-1s.45-1 1-1c.56 0 1 .45 1 1zm8 0c0 .55-.46 1-1 1-.57 0-1-.45-1-1s.43-1 1-1c.54 0 1 .45 1 1zm7.97 0c0 .55-.45 1-1 1s-1-.45-1-1 .45-1 1-1 1 .45 1 1zm7.98 0c0 .55-.45 1-1 1s-1-.45-1-1 .45-1 1-1 1 .45 1 1zm7.98 0c0 .55-.44 1-1 1-.55 0-1-.45-1-1s.45-1 1-1c.56 0 1 .45 1 1zm8 0c0 .55-.46 1-1 1-.57 0-1-.45-1-1s.43-1 1-1c.54 0 1 .45 1 1zm7.97 0c0 .55-.45 1-1 1s-1-.45-1-1 .45-1 1-1 1 .45 1 1zm7.98 0c0 .55-.44 1-1 1-.54 0-1-.45-1-1s.46-1 1-1c.56 0 1 .45 1 1zm8 0c0 .55-.46 1-1 1-.56 0-1-.45-1-1s.44-1 1-1c.54 0 1 .45 1 1zm7.97 0c0 .55-.44 1-1 1-.55 0-1-.45-1-1s.45-1 1-1c.56 0 1 .45 1 1zm8 0c0 .55-.46 1-1 1-.57 0-1-.45-1-1s.43-1 1-1c.54 0 1 .45 1 1zm7.97 0c0 .55-.45 1-1 1s-1-.45-1-1 .45-1 1-1 1 .45 1 1zm7.98 0c0 .55-.44 1-1 1-.55 0-1-.45-1-1s.45-1 1-1c.56 0 1 .45 1 1zm8 0c0 .55-.46 1-1 1-.57 0-1-.45-1-1s.43-1 1-1c.54 0 1 .45 1 1zm7.97 0c0 .55-.46 1-1 1-.56 0-1-.45-1-1s.44-1 1-1c.54 0 1 .45 1 1zm7.97 0c0 .55-.45 1-1 1s-1-.45-1-1 .45-1 1-1 1 .45 1 1zm7.98 0c0 .55-.45 1-1 1s-1-.45-1-1 .45-1 1-1 1 .45 1 1zm7.98 0c0 .55-.44 1-1 1-.55 0-1-.45-1-1s.45-1 1-1c.56 0 1 .45 1 1zm8 0c0 .55-.46 1-1 1-.57 0-1-.45-1-1s.43-1 1-1c.54 0 1 .45 1 1zm7.97 0c0 .55-.45 1-1 1s-1-.45-1-1 .45-1 1-1 1 .45 1 1zm7.98 0c0 .55-.45 1-1 1s-1-.45-1-1 .45-1 1-1 1 .45 1 1zm7.98 0c0 .55-.44 1-1 1-.55 0-1-.45-1-1s.45-1 1-1c.56 0 1 .45 1 1zm8 0c0 .55-.46 1-1 1-.57 0-1-.45-1-1s.43-1 1-1c.54 0 1 .45 1 1zm7.97 0c0 .55-.45 1-1 1s-1-.45-1-1 .45-1 1-1 1 .45 1 1zm7.98 0c0 .55-.44 1-1 1-.54 0-1-.45-1-1s.46-1 1-1c.56 0 1 .45 1 1zm8 0c0 .55-.45 1-1 1-.56 0-1-.45-1-1s.44-1 1-1c.55 0 1 .45 1 1zm7.98 0c0 .55-.45 1-1 1-.56 0-1-.45-1-1s.44-1 1-1c.55 0 1 .45 1 1zm7.98 0c0 .55-.45 1-1 1s-1-.45-1-1 .45-1 1-1 1 .45 1 1zm7.98 0c0 .55-.45 1-1 1s-1-.45-1-1 .45-1 1-1 1 .45 1 1zm7.98 0c0 .55-.45 1-1 1s-1-.45-1-1 .45-1 1-1 1 .45 1 1zm8 0c0 .55-.46 1-1 1-.57 0-1-.45-1-1s.43-1 1-1c.54 0 1 .45 1 1zm7.97 0c0 .55-.46 1-1 1-.57 0-1-.45-1-1s.43-1 1-1c.54 0 1 .45 1 1zm7.97 0c0 .55-.45 1-1 1s-1-.45-1-1 .45-1 1-1 1 .45 1 1zm7.98 0c0 .55-.44 1-1 1-.55 0-1-.45-1-1s.45-1 1-1c.56 0 1 .45 1 1zm8 0c0 .55-.46 1-1 1-.57 0-1-.45-1-1s.43-1 1-1c.54 0 1 .45 1 1zm7.97 0c0 .55-.45 1-1 1-.56 0-1-.45-1-1s.44-1 1-1c.55 0 1 .45 1 1zm7.98 0c0 .55-.45 1-1 1s-1-.45-1-1 .45-1 1-1 1 .45 1 1zm7.98 0c0 .55-.45 1-1 1s-1-.45-1-1 .45-1 1-1 1 .45 1 1zm7.98 0c0 .55-.44 1-1 1-.55 0-1-.45-1-1s.45-1 1-1c.56 0 1 .45 1 1zm8 0c0 .55-.46 1-1 1-.57 0-1-.45-1-1s.43-1 1-1c.54 0 1 .45 1 1zm7.97 0c0 .55-.45 1-1 1s-1-.45-1-1 .45-1 1-1 1 .45 1 1zm7.98 0c0 .55-.44 1-1 1-.54 0-1-.45-1-1s.46-1 1-1c.56 0 1 .45 1 1zm8 0c0 .55-.45 1-1 1-.56 0-1-.45-1-1s.44-1 1-1c.55 0 1 .45 1 1zm7.98 0c0 .55-.45 1-1 1-.56 0-1-.45-1-1s.44-1 1-1c.55 0 1 .45 1 1zm7.98 0c0 .55-.45 1-1 1s-1-.45-1-1 .45-1 1-1 1 .45 1 1zm7.98 0c0 .55-.45 1-1 1s-1-.45-1-1 .45-1 1-1 1 .45 1 1zm7.98 0c0 .55-.44 1-1 1-.55 0-1-.45-1-1s.45-1 1-1c.56 0 1 .45 1 1zm8 0c0 .55-.46 1-1 1-.57 0-1-.45-1-1s.43-1 1-1c.54 0 1 .45 1 1zm7.97 0c0 .55-.46 1-1 1-.56 0-1-.45-1-1s.44-1 1-1c.54 0 1 .45 1 1zm7.97 0c0 .55-.45 1-1 1s-1-.45-1-1 .45-1 1-1 1 .45 1 1zm7.98 0c0 .55-.45 1-1 1s-1-.45-1-1 .45-1 1-1 1 .45 1 1zm7.98 0c0 .55-.44 1-1 1-.55 0-1-.45-1-1s.45-1 1-1c.56 0 1 .45 1 1zm8 0c0 .55-.46 1-1 1-.57 0-1-.45-1-1s.43-1 1-1c.54 0 1 .45 1 1zm7.97 0c0 .55-.45 1-1 1s-1-.45-1-1 .45-1 1-1 1 .45 1 1zm6 6c0 .55-.45 1-1 1s-1-.45-1-1 .45-1 1-1 1 .45 1 1zm0 8c0 .55-.45 1-1 1s-1-.45-1-1 .45-1 1-1 1 .45 1 1zm0 8c0 .55-.45 1-1 1s-1-.45-1-1 .45-1 1-1 1 .45 1 1zm0 8c0 .55-.45 1-1 1s-1-.45-1-1 .45-1 1-1 1 .45 1 1zm0 8c0 .55-.45 1-1 1s-1-.45-1-1 .45-1 1-1 1 .45 1 1zm0 8c0 .55-.45 1-1 1s-1-.45-1-1 .45-1 1-1 1 .45 1 1zm0 8c0 .55-.45 1-1 1s-1-.45-1-1 .45-1 1-1 1 .45 1 1zm0 8c0 .55-.45 1-1 1s-1-.45-1-1 .45-1 1-1 1 .45 1 1zm0 8c0 .55-.45 1-1 1s-1-.45-1-1 .45-1 1-1 1 .45 1 1zm0 8c0 .55-.45 1-1 1s-1-.45-1-1 .45-1 1-1 1 .45 1 1zm0 8c0 .55-.45 1-1 1s-1-.45-1-1 .45-1 1-1 1 .45 1 1zm0 8c0 .55-.45 1-1 1s-1-.45-1-1 .45-1 1-1 1 .45 1 1zm0 8c0 .55-.45 1-1 1s-1-.45-1-1 .45-1 1-1 1 .45 1 1zm0 8c0 .55-.45 1-1 1s-1-.45-1-1 .45-1 1-1 1 .45 1 1zm0 8c0 .55-.45 1-1 1s-1-.45-1-1 .45-1 1-1 1 .45 1 1zm0 8c0 .55-.45 1-1 1s-1-.45-1-1 .45-1 1-1 1 .45 1 1zm0 8c0 .55-.45 1-1 1s-1-.45-1-1 .45-1 1-1 1 .45 1 1zm0 8c0 .55-.45 1-1 1s-1-.45-1-1 .45-1 1-1 1 .45 1 1zm0 8c0 .55-.45 1-1 1s-1-.45-1-1 .45-1 1-1 1 .45 1 1zm0 8c0 .55-.45 1-1 1s-1-.45-1-1 .45-1 1-1 1 .45 1 1zm0 8c0 .55-.45 1-1 1s-1-.45-1-1 .45-1 1-1 1 .45 1 1zm0 8c0 .55-.45 1-1 1s-1-.45-1-1 .45-1 1-1 1 .45 1 1zm0 8c0 .55-.45 1-1 1s-1-.45-1-1 .45-1 1-1 1 .45 1 1zm0 8c0 .55-.45 1-1 1s-1-.45-1-1 .45-1 1-1 1 .45 1 1zm0 8c0 .55-.45 1-1 1s-1-.45-1-1 .45-1 1-1 1 .45 1 1zm0 8c0 .55-.45 1-1 1s-1-.45-1-1 .45-1 1-1 1 .45 1 1zm0 8c0 .55-.45 1-1 1s-1-.45-1-1 .45-1 1-1 1 .45 1 1zm0 8c0 .55-.45 1-1 1s-1-.45-1-1 .45-1 1-1 1 .45 1 1zm0 8c0 .55-.45 1-1 1s-1-.45-1-1 .45-1 1-1 1 .45 1 1zm0 8c0 .55-.45 1-1 1s-1-.45-1-1 .45-1 1-1 1 .45 1 1zm0 8c0 .55-.45 1-1 1s-1-.45-1-1 .45-1 1-1 1 .45 1 1zm0 8c0 .55-.45 1-1 1s-1-.45-1-1 .45-1 1-1 1 .45 1 1zm0 8c0 .55-.45 1-1 1s-1-.45-1-1 .45-1 1-1 1 .45 1 1zm0 8c0 .55-.45 1-1 1s-1-.45-1-1 .45-1 1-1 1 .45 1 1zm0 8c0 .55-.45 1-1 1s-1-.45-1-1 .45-1 1-1 1 .45 1 1zm0 8c0 .55-.45 1-1 1s-1-.45-1-1 .45-1 1-1 1 .45 1 1zm0 8c0 .55-.45 1-1 1s-1-.45-1-1 .45-1 1-1 1 .45 1 1zm0 8c0 .55-.45 1-1 1s-1-.45-1-1 .45-1 1-1 1 .45 1 1zm0 8c0 .55-.45 1-1 1s-1-.45-1-1 .45-1 1-1 1 .45 1 1zm0 8c0 .55-.45 1-1 1s-1-.45-1-1 .45-1 1-1 1 .45 1 1zm0 8c0 .55-.45 1-1 1s-1-.45-1-1 .45-1 1-1 1 .45 1 1zm0 8c0 .55-.45 1-1 1s-1-.45-1-1 .45-1 1-1 1 .45 1 1zm0 8c0 .55-.45 1-1 1s-1-.45-1-1 .45-1 1-1 1 .45 1 1zm0 8c0 .55-.45 1-1 1s-1-.45-1-1 .45-1 1-1 1 .45 1 1zm0 8c0 .55-.45 1-1 1s-1-.45-1-1 .45-1 1-1 1 .45 1 1zm0 8c0 .55-.45 1-1 1s-1-.45-1-1 .45-1 1-1 1 .45 1 1zm0 8c0 .55-.45 1-1 1s-1-.45-1-1 .45-1 1-1 1 .45 1 1zm0 8c0 .55-.45 1-1 1s-1-.45-1-1 .45-1 1-1 1 .45 1 1zm0 8c0 .55-.45 1-1 1s-1-.45-1-1 .45-1 1-1 1 .45 1 1zm0 8c0 .55-.45 1-1 1s-1-.45-1-1 .45-1 1-1 1 .45 1 1zm0 8c0 .55-.45 1-1 1s-1-.45-1-1 .45-1 1-1 1 .45 1 1zm0 8c0 .55-.45 1-1 1s-1-.45-1-1 .45-1 1-1 1 .45 1 1zm0 8c0 .55-.45 1-1 1s-1-.45-1-1 .45-1 1-1 1 .45 1 1zm0 8c0 .55-.45 1-1 1s-1-.45-1-1 .45-1 1-1 1 .45 1 1zm0 8c0 .55-.45 1-1 1s-1-.45-1-1 .45-1 1-1 1 .45 1 1zm0 8c0 .55-.45 1-1 1s-1-.45-1-1 .45-1 1-1 1 .45 1 1zm0 8c0 .55-.45 1-1 1s-1-.45-1-1 .45-1 1-1 1 .45 1 1zm0 8c0 .55-.45 1-1 1s-1-.45-1-1 .45-1 1-1 1 .45 1 1zm0 8c0 .55-.45 1-1 1s-1-.45-1-1 .45-1 1-1 1 .45 1 1zm0 8c0 .55-.45 1-1 1s-1-.45-1-1 .45-1 1-1 1 .45 1 1zm0 8c0 .55-.45 1-1 1s-1-.45-1-1 .45-1 1-1 1 .45 1 1zm0 8c0 .55-.45 1-1 1s-1-.45-1-1 .45-1 1-1 1 .45 1 1zm0 8c0 .55-.45 1-1 1s-1-.45-1-1 .45-1 1-1 1 .45 1 1zm0 8c0 .55-.45 1-1 1s-1-.45-1-1 .45-1 1-1 1 .45 1 1zm0 8c0 .55-.45 1-1 1s-1-.45-1-1 .45-1 1-1 1 .45 1 1zm0 8c0 .55-.45 1-1 1s-1-.45-1-1 .45-1 1-1 1 .45 1 1zm0 8c0 .55-.45 1-1 1s-1-.45-1-1 .45-1 1-1 1 .45 1 1zm0 8c0 .55-.45 1-1 1s-1-.45-1-1 .45-1 1-1 1 .45 1 1zm0 8c0 .55-.45 1-1 1s-1-.45-1-1 .45-1 1-1 1 .45 1 1zm0 8c0 .55-.45 1-1 1s-1-.45-1-1 .45-1 1-1 1 .45 1 1zm0 8c0 .55-.45 1-1 1s-1-.45-1-1 .45-1 1-1 1 .45 1 1zm0 8c0 .55-.45 1-1 1s-1-.45-1-1 .45-1 1-1 1 .45 1 1zm0 8c0 .55-.45 1-1 1s-1-.45-1-1 .45-1 1-1 1 .45 1 1zm0 8c0 .55-.45 1-1 1s-1-.45-1-1 .45-1 1-1 1 .45 1 1zm0 8c0 .55-.45 1-1 1s-1-.45-1-1 .45-1 1-1 1 .45 1 1zm0 8c0 .55-.45 1-1 1s-1-.45-1-1 .45-1 1-1 1 .45 1 1zm0 8c0 .55-.45 1-1 1s-1-.45-1-1 .45-1 1-1 1 .45 1 1zm0 8c0 .55-.45 1-1 1s-1-.45-1-1 .45-1 1-1 1 .45 1 1zm0 8c0 .55-.45 1-1 1s-1-.45-1-1 .45-1 1-1 1 .45 1 1zm0 8c0 .55-.45 1-1 1s-1-.45-1-1 .45-1 1-1 1 .45 1 1zm0 8c0 .55-.45 1-1 1s-1-.45-1-1 .45-1 1-1 1 .45 1 1zm0 8c0 .55-.45 1-1 1s-1-.45-1-1 .45-1 1-1 1 .45 1 1zm0 8c0 .55-.45 1-1 1s-1-.45-1-1 .45-1 1-1 1 .45 1 1zm0 8c0 .55-.45 1-1 1s-1-.45-1-1 .45-1 1-1 1 .45 1 1zm0 8c0 .55-.45 1-1 1s-1-.45-1-1 .45-1 1-1 1 .45 1 1zm0 8c0 .55-.45 1-1 1s-1-.45-1-1 .45-1 1-1 1 .45 1 1zm0 8c0 .55-.45 1-1 1s-1-.45-1-1 .45-1 1-1 1 .45 1 1zm0 8c0 .55-.45 1-1 1s-1-.45-1-1 .45-1 1-1 1 .45 1 1zm0 8c0 .55-.45 1-1 1s-1-.45-1-1 .45-1 1-1 1 .45 1 1zm0 8c0 .55-.45 1-1 1s-1-.45-1-1 .45-1 1-1 1 .45 1 1zm0 8c0 .55-.45 1-1 1s-1-.45-1-1 .45-1 1-1 1 .45 1 1zm0 8c0 .55-.45 1-1 1s-1-.45-1-1 .45-1 1-1 1 .45 1 1zm0 8c0 .55-.45 1-1 1s-1-.45-1-1 .45-1 1-1 1 .45 1 1zm0 8c0 .55-.45 1-1 1s-1-.45-1-1 .45-1 1-1 1 .45 1 1zm0 8c0 .55-.45 1-1 1s-1-.45-1-1 .45-1 1-1 1 .45 1 1zm0 8c0 .55-.45 1-1 1s-1-.45-1-1 .45-1 1-1 1 .45 1 1zm0 8c0 .55-.45 1-1 1s-1-.45-1-1 .45-1 1-1 1 .45 1 1zm0 8c0 .55-.45 1-1 1s-1-.45-1-1 .45-1 1-1 1 .45 1 1zm0 8c0 .55-.45 1-1 1s-1-.45-1-1 .45-1 1-1 1 .45 1 1zm0 8c0 .55-.45 1-1 1s-1-.45-1-1 .45-1 1-1 1 .45 1 1zm0 8c0 .55-.45 1-1 1s-1-.45-1-1 .45-1 1-1 1 .45 1 1zm0 8c0 .55-.45 1-1 1s-1-.45-1-1 .45-1 1-1 1 .45 1 1zm-6 6c0 .55-.45 1-1 1s-1-.45-1-1 .45-1 1-1 1 .45 1 1zm-7.98 0c0 .55-.45 1-1 1s-1-.45-1-1 .45-1 1-1 1 .45 1 1zm-8 0c0 .55-.43 1-1 1-.54 0-1-.45-1-1s.46-1 1-1c.57 0 1 .45 1 1zm-7.97 0c0 .55-.45 1-1 1s-1-.45-1-1 .45-1 1-1 1 .45 1 1zm-7.98 0c0 .55-.45 1-1 1s-1-.45-1-1 .45-1 1-1 1 .45 1 1zm-7.98 0c0 .55-.46 1-1 1-.56 0-1-.45-1-1s.44-1 1-1c.54 0 1 .45 1 1zm-8 0c0 .55-.44 1-1 1-.55 0-1-.45-1-1s.45-1 1-1c.56 0 1 .45 1 1zm-7.98 0c0 .55-.44 1-1 1-.55 0-1-.45-1-1s.45-1 1-1c.56 0 1 .45 1 1zm-7.98 0c0 .55-.45 1-1 1s-1-.45-1-1 .45-1 1-1 1 .45 1 1zm-7.98 0c0 .55-.45 1-1 1s-1-.45-1-1 .45-1 1-1 1 .45 1 1zm-7.98 0c0 .55-.45 1-1 1-.56 0-1-.45-1-1s.44-1 1-1c.55 0 1 .45 1 1zm-8 0c0 .55-.43 1-1 1-.54 0-1-.45-1-1s.46-1 1-1c.57 0 1 .45 1 1zm-7.97 0c0 .55-.44 1-1 1-.54 0-1-.45-1-1s.46-1 1-1c.56 0 1 .45 1 1zm-7.97 0c0 .55-.45 1-1 1s-1-.45-1-1 .45-1 1-1 1 .45 1 1zm-7.98 0c0 .55-.45 1-1 1-.56 0-1-.45-1-1s.44-1 1-1c.55 0 1 .45 1 1zm-8 0c0 .55-.43 1-1 1-.54 0-1-.45-1-1s.46-1 1-1c.57 0 1 .45 1 1zm-7.97 0c0 .55-.45 1-1 1s-1-.45-1-1 .45-1 1-1 1 .45 1 1zm-7.98 0c0 .55-.45 1-1 1s-1-.45-1-1 .45-1 1-1 1 .45 1 1zm-7.98 0c0 .55-.45 1-1 1-.56 0-1-.45-1-1s.44-1 1-1c.55 0 1 .45 1 1zm-8 0c0 .55-.43 1-1 1-.54 0-1-.45-1-1s.46-1 1-1c.57 0 1 .45 1 1zm-7.97 0c0 .55-.44 1-1 1-.55 0-1-.45-1-1s.45-1 1-1c.56 0 1 .45 1 1zm-7.98 0c0 .55-.45 1-1 1s-1-.45-1-1 .45-1 1-1 1 .45 1 1zm-7.98 0c0 .55-.46 1-1 1-.57 0-1-.45-1-1s.43-1 1-1c.54 0 1 .45 1 1zm-8 0c0 .55-.44 1-1 1-.55 0-1-.45-1-1s.45-1 1-1c.56 0 1 .45 1 1zm-7.98 0c0 .55-.45 1-1 1s-1-.45-1-1 .45-1 1-1 1 .45 1 1zm-7.98 0c0 .55-.45 1-1 1s-1-.45-1-1 .45-1 1-1 1 .45 1 1zm-7.98 0c0 .55-.45 1-1 1s-1-.45-1-1 .45-1 1-1 1 .45 1 1zm-7.98 0c0 .55-.45 1-1 1-.56 0-1-.45-1-1s.44-1 1-1c.55 0 1 .45 1 1zm-8 0c0 .55-.43 1-1 1-.54 0-1-.45-1-1s.46-1 1-1c.57 0 1 .45 1 1zm-7.97 0c0 .55-.44 1-1 1-.54 0-1-.45-1-1s.46-1 1-1c.56 0 1 .45 1 1zm-7.97 0c0 .55-.45 1-1 1s-1-.45-1-1 .45-1 1-1 1 .45 1 1zm-7.98 0c0 .55-.45 1-1 1-.56 0-1-.45-1-1s.44-1 1-1c.55 0 1 .45 1 1zm-8 0c0 .55-.43 1-1 1-.54 0-1-.45-1-1s.46-1 1-1c.57 0 1 .45 1 1zm-7.97 0c0 .55-.45 1-1 1s-1-.45-1-1 .45-1 1-1 1 .45 1 1zm-7.98 0c0 .55-.45 1-1 1s-1-.45-1-1 .45-1 1-1 1 .45 1 1zm-7.98 0c0 .55-.45 1-1 1-.56 0-1-.45-1-1s.44-1 1-1c.55 0 1 .45 1 1zm-8 0c0 .55-.43 1-1 1-.54 0-1-.45-1-1s.46-1 1-1c.57 0 1 .45 1 1zm-7.97 0c0 .55-.45 1-1 1s-1-.45-1-1 .45-1 1-1 1 .45 1 1zm-7.98 0c0 .55-.45 1-1 1s-1-.45-1-1 .45-1 1-1 1 .45 1 1zm-7.98 0c0 .55-.46 1-1 1-.56 0-1-.45-1-1s.44-1 1-1c.54 0 1 .45 1 1zm-8 0c0 .55-.44 1-1 1-.55 0-1-.45-1-1s.45-1 1-1c.56 0 1 .45 1 1zm-7.98 0c0 .55-.44 1-1 1-.55 0-1-.45-1-1s.45-1 1-1c.56 0 1 .45 1 1zm-7.98 0c0 .55-.45 1-1 1s-1-.45-1-1 .45-1 1-1 1 .45 1 1zm-7.98 0c0 .55-.45 1-1 1-.56 0-1-.45-1-1s.44-1 1-1c.55 0 1 .45 1 1zm-8 0c0 .55-.43 1-1 1-.54 0-1-.45-1-1s.46-1 1-1c.57 0 1 .45 1 1zm-7.97 0c0 .55-.46 1-1 1-.56 0-1-.45-1-1s.44-1 1-1c.54 0 1 .45 1 1zm-8 0c0 .55-.44 1-1 1-.54 0-1-.45-1-1s.46-1 1-1c.56 0 1 .45 1 1zm-7.97 0c0 .55-.45 1-1 1s-1-.45-1-1 .45-1 1-1 1 .45 1 1zm-7.98 0c0 .55-.45 1-1 1-.56 0-1-.45-1-1s.44-1 1-1c.55 0 1 .45 1 1zm-8 0c0 .55-.43 1-1 1-.54 0-1-.45-1-1s.46-1 1-1c.57 0 1 .45 1 1zm-7.97 0c0 .55-.45 1-1 1s-1-.45-1-1 .45-1 1-1 1 .45 1 1zm-7.98 0c0 .55-.45 1-1 1s-1-.45-1-1 .45-1 1-1 1 .45 1 1zm-7.98 0c0 .55-.45 1-1 1-.56 0-1-.45-1-1s.44-1 1-1c.55 0 1 .45 1 1zm-8 0c0 .55-.43 1-1 1-.54 0-1-.45-1-1s.46-1 1-1c.57 0 1 .45 1 1zm-7.97 0c0 .55-.45 1-1 1s-1-.45-1-1 .45-1 1-1 1 .45 1 1zm-7.98 0c0 .55-.45 1-1 1s-1-.45-1-1 .45-1 1-1 1 .45 1 1zm-7.98 0c0 .55-.46 1-1 1-.57 0-1-.45-1-1s.43-1 1-1c.54 0 1 .45 1 1zm-8 0c0 .55-.44 1-1 1-.55 0-1-.45-1-1s.45-1 1-1c.56 0 1 .45 1 1zm-7.98 0c0 .55-.45 1-1 1s-1-.45-1-1 .45-1 1-1 1 .45 1 1zm-7.98 0c0 .55-.45 1-1 1s-1-.45-1-1 .45-1 1-1 1 .45 1 1zm-7.98 0c0 .55-.45 1-1 1s-1-.45-1-1 .45-1 1-1 1 .45 1 1zm-8 0c0 .55-.43 1-1 1-.54 0-1-.45-1-1s.46-1 1-1c.57 0 1 .45 1 1zm-7.97 0c0 .55-.45 1-1 1-.56 0-1-.45-1-1s.44-1 1-1c.55 0 1 .45 1 1zm-8 0c0 .55-.44 1-1 1-.54 0-1-.45-1-1s.46-1 1-1c.56 0 1 .45 1 1zm-7.97 0c0 .55-.45 1-1 1-.56 0-1-.45-1-1s.44-1 1-1c.55 0 1 .45 1 1zm-8 0c0 .55-.43 1-1 1-.54 0-1-.45-1-1s.46-1 1-1c.57 0 1 .45 1 1zm-7.97 0c0 .55-.44 1-1 1-.55 0-1-.45-1-1s.45-1 1-1c.56 0 1 .45 1 1zm-7.98 0c0 .55-.45 1-1 1s-1-.45-1-1 .45-1 1-1 1 .45 1 1zm-7.98 0c0 .55-.45 1-1 1s-1-.45-1-1 .45-1 1-1 1 .45 1 1zm-7.98 0c0 .55-.45 1-1 1-.56 0-1-.45-1-1s.44-1 1-1c.55 0 1 .45 1 1zm-8 0c0 .55-.43 1-1 1-.54 0-1-.45-1-1s.46-1 1-1c.57 0 1 .45 1 1zm-7.97 0c0 .55-.45 1-1 1s-1-.45-1-1 .45-1 1-1 1 .45 1 1zm-7.98 0c0 .55-.45 1-1 1s-1-.45-1-1 .45-1 1-1 1 .45 1 1zm-7.98 0c0 .55-.46 1-1 1-.57 0-1-.45-1-1s.43-1 1-1c.54 0 1 .45 1 1zm-8 0c0 .55-.44 1-1 1-.55 0-1-.45-1-1s.45-1 1-1c.56 0 1 .45 1 1zm-7.98 0c0 .55-.45 1-1 1s-1-.45-1-1 .45-1 1-1 1 .45 1 1zm-7.98 0c0 .55-.45 1-1 1s-1-.45-1-1 .45-1 1-1 1 .45 1 1zm-7.98 0c0 .55-.45 1-1 1-.56 0-1-.45-1-1s.44-1 1-1c.55 0 1 .45 1 1zm-8 0c0 .55-.43 1-1 1-.54 0-1-.45-1-1s.46-1 1-1c.57 0 1 .45 1 1zm-7.97 0c0 .55-.46 1-1 1-.56 0-1-.45-1-1s.44-1 1-1c.54 0 1 .45 1 1zm-8 0c0 .55-.44 1-1 1-.54 0-1-.45-1-1s.46-1 1-1c.56 0 1 .45 1 1zm-7.97 0c0 .55-.45 1-1 1s-1-.45-1-1 .45-1 1-1 1 .45 1 1zm-7.98 0c0 .55-.45 1-1 1-.56 0-1-.45-1-1s.44-1 1-1c.55 0 1 .45 1 1zm-8 0c0 .55-.43 1-1 1-.54 0-1-.45-1-1s.46-1 1-1c.57 0 1 .45 1 1zm-7.97 0c0 .55-.45 1-1 1s-1-.45-1-1 .45-1 1-1 1 .45 1 1zm-7.98 0c0 .55-.45 1-1 1s-1-.45-1-1 .45-1 1-1 1 .45 1 1zm-8 0c0 .55-.43 1-1 1-.54 0-1-.45-1-1s.46-1 1-1c.57 0 1 .45 1 1zm-7.97 0c0 .55-.45 1-1 1s-1-.45-1-1 .45-1 1-1 1 .45 1 1zm-7.98 0c0 .55-.45 1-1 1s-1-.45-1-1 .45-1 1-1 1 .45 1 1zm-7.98 0c0 .55-.45 1-1 1s-1-.45-1-1 .45-1 1-1 1 .45 1 1zm-7.98 0c0 .55-.46 1-1 1-.57 0-1-.45-1-1s.43-1 1-1c.54 0 1 .45 1 1zm-8 0c0 .55-.44 1-1 1-.55 0-1-.45-1-1s.45-1 1-1c.56 0 1 .45 1 1zm-7.98 0c0 .55-.45 1-1 1s-1-.45-1-1 .45-1 1-1 1 .45 1 1zm-7.98 0c0 .55-.45 1-1 1s-1-.45-1-1 .45-1 1-1 1 .45 1 1zm-7.98 0c0 .55-.45 1-1 1-.56 0-1-.45-1-1s.44-1 1-1c.55 0 1 .45 1 1zm-8 0c0 .55-.43 1-1 1-.54 0-1-.45-1-1s.46-1 1-1c.57 0 1 .45 1 1zm-7.97 0c0 .55-.46 1-1 1-.56 0-1-.45-1-1s.44-1 1-1c.54 0 1 .45 1 1zm-8 0c0 .55-.44 1-1 1-.54 0-1-.45-1-1s.46-1 1-1c.56 0 1 .45 1 1zm-7.97 0c0 .55-.45 1-1 1s-1-.45-1-1 .45-1 1-1 1 .45 1 1zm-8 0c0 .55-.43 1-1 1-.54 0-1-.45-1-1s.46-1 1-1c.57 0 1 .45 1 1zm-7.97 0c0 .55-.45 1-1 1s-1-.45-1-1 .45-1 1-1 1 .45 1 1zm-7.98 0c0 .55-.45 1-1 1s-1-.45-1-1 .45-1 1-1 1 .45 1 1zm-7.98 0c0 .55-.45 1-1 1-.56 0-1-.45-1-1s.44-1 1-1c.55 0 1 .45 1 1zm-8 0c0 .55-.43 1-1 1-.54 0-1-.45-1-1s.46-1 1-1c.57 0 1 .45 1 1zm-7.97 0c0 .55-.44 1-1 1-.55 0-1-.45-1-1s.45-1 1-1c.56 0 1 .45 1 1zm-7.98 0c0 .55-.45 1-1 1s-1-.45-1-1 .45-1 1-1 1 .45 1 1zm-7.98 0c0 .55-.45 1-1 1s-1-.45-1-1 .45-1 1-1 1 .45 1 1zm-7.98 0c0 .55-.46 1-1 1-.57 0-1-.45-1-1s.43-1 1-1c.54 0 1 .45 1 1zm-8 0c0 .55-.45 1-1 1s-1-.45-1-1 .45-1 1-1 1 .45 1 1zm-7.98 0c0 .55-.45 1-1 1s-1-.45-1-1 .45-1 1-1 1 .45 1 1zm-7.98 0c0 .55-.45 1-1 1s-1-.45-1-1 .45-1 1-1 1 .45 1 1zm-7.98 0c0 .55-.45 1-1 1-.56 0-1-.45-1-1s.44-1 1-1c.55 0 1 .45 1 1zm-8 0c0 .55-.43 1-1 1-.54 0-1-.45-1-1s.46-1 1-1c.57 0 1 .45 1 1zm-7.97 0c0 .55-.46 1-1 1-.56 0-1-.45-1-1s.44-1 1-1c.54 0 1 .45 1 1zm-8 0c0 .55-.44 1-1 1-.54 0-1-.45-1-1s.46-1 1-1c.56 0 1 .45 1 1zm-7.97 0c0 .55-.45 1-1 1-.56 0-1-.45-1-1s.44-1 1-1c.55 0 1 .45 1 1zm-8 0c0 .55-.43 1-1 1-.54 0-1-.45-1-1s.46-1 1-1c.57 0 1 .45 1 1zm-7.97 0c0 .55-.45 1-1 1s-1-.45-1-1 .45-1 1-1 1 .45 1 1zm-7.98 0c0 .55-.45 1-1 1s-1-.45-1-1 .45-1 1-1 1 .45 1 1zm-7.98 0c0 .55-.45 1-1 1s-1-.45-1-1 .45-1 1-1 1 .45 1 1zm-8 0c0 .55-.43 1-1 1-.54 0-1-.45-1-1s.46-1 1-1c.57 0 1 .45 1 1zm-7.97 0c0 .55-.45 1-1 1s-1-.45-1-1 .45-1 1-1 1 .45 1 1zm-7.98 0c0 .55-.45 1-1 1s-1-.45-1-1 .45-1 1-1 1 .45 1 1zm-7.98 0c0 .55-.45 1-1 1-.56 0-1-.45-1-1s.44-1 1-1c.55 0 1 .45 1 1zm-8 0c0 .55-.43 1-1 1-.54 0-1-.45-1-1s.46-1 1-1c.57 0 1 .45 1 1zm-7.97 0c0 .55-.44 1-1 1-.55 0-1-.45-1-1s.45-1 1-1c.56 0 1 .45 1 1zm-7.98 0c0 .55-.45 1-1 1s-1-.45-1-1 .45-1 1-1 1 .45 1 1zm-7.98 0c0 .55-.45 1-1 1s-1-.45-1-1 .45-1 1-1 1 .45 1 1zm-7.98 0c0 .55-.45 1-1 1-.56 0-1-.45-1-1s.44-1 1-1c.55 0 1 .45 1 1zm-8 0c0 .55-.44 1-1 1-.54 0-1-.45-1-1s.46-1 1-1c.56 0 1 .45 1 1zm-7.97 0c0 .55-.46 1-1 1-.56 0-1-.45-1-1s.44-1 1-1c.54 0 1 .45 1 1zm-8 0c0 .55-.44 1-1 1-.54 0-1-.45-1-1s.46-1 1-1c.56 0 1 .45 1 1zm-7.97 0c0 .55-.45 1-1 1-.56 0-1-.45-1-1s.44-1 1-1c.55 0 1 .45 1 1zm-8 0c0 .55-.43 1-1 1-.54 0-1-.45-1-1s.46-1 1-1c.57 0 1 .45 1 1zm-7.97 0c0 .55-.45 1-1 1s-1-.45-1-1 .45-1 1-1 1 .45 1 1zm-7.98 0c0 .55-.45 1-1 1s-1-.45-1-1 .45-1 1-1 1 .45 1 1zm-7.98 0c0 .55-.45 1-1 1-.56 0-1-.45-1-1s.44-1 1-1c.55 0 1 .45 1 1zm-8 0c0 .55-.43 1-1 1-.54 0-1-.45-1-1s.46-1 1-1c.57 0 1 .45 1 1zm-7.97 0c0 .55-.45 1-1 1s-1-.45-1-1 .45-1 1-1 1 .45 1 1zm-7.98 0c0 .55-.45 1-1 1s-1-.45-1-1 .45-1 1-1 1 .45 1 1zm-7.98 0c0 .55-.45 1-1 1s-1-.45-1-1 .45-1 1-1 1 .45 1 1zm-7.98 0c0 .55-.46 1-1 1-.57 0-1-.45-1-1s.43-1 1-1c.54 0 1 .45 1 1zm-8 0c0 .55-.45 1-1 1s-1-.45-1-1 .45-1 1-1 1 .45 1 1zm-7.98 0c0 .55-.45 1-1 1s-1-.45-1-1 .45-1 1-1 1 .45 1 1zm-7.98 0c0 .55-.45 1-1 1s-1-.45-1-1 .45-1 1-1 1 .45 1 1zm-8 0c0 .55-.43 1-1 1-.54 0-1-.45-1-1s.46-1 1-1c.57 0 1 .45 1 1zm-7.97 0c0 .55-.45 1-1 1s-1-.45-1-1 .45-1 1-1 1 .45 1 1zm-7.98 0c0 .55-.46 1-1 1-.56 0-1-.45-1-1s.44-1 1-1c.54 0 1 .45 1 1zm-8 0c0 .55-.44 1-1 1-.54 0-1-.45-1-1s.46-1 1-1c.56 0 1 .45 1 1zm-7.97 0c0 .55-.45 1-1 1-.56 0-1-.45-1-1s.44-1 1-1c.55 0 1 .45 1 1zm-8 0c0 .55-.43 1-1 1-.54 0-1-.45-1-1s.46-1 1-1c.57 0 1 .45 1 1zm-7.97 0c0 .55-.45 1-1 1s-1-.45-1-1 .45-1 1-1 1 .45 1 1zm-7.98 0c0 .55-.45 1-1 1s-1-.45-1-1 .45-1 1-1 1 .45 1 1zm-7.98 0c0 .55-.45 1-1 1-.56 0-1-.45-1-1s.44-1 1-1c.55 0 1 .45 1 1zm-8 0c0 .55-.43 1-1 1-.54 0-1-.45-1-1s.46-1 1-1c.57 0 1 .45 1 1zm-7.97 0c0 .55-.45 1-1 1s-1-.45-1-1 .45-1 1-1 1 .45 1 1zm-7.98 0c0 .55-.45 1-1 1s-1-.45-1-1 .45-1 1-1 1 .45 1 1zm-7.98 0c0 .55-.45 1-1 1-.56 0-1-.45-1-1s.44-1 1-1c.55 0 1 .45 1 1zm-8 0c0 .55-.43 1-1 1-.54 0-1-.45-1-1s.46-1 1-1c.57 0 1 .45 1 1zm-7.97 0c0 .55-.45 1-1 1s-1-.45-1-1 .45-1 1-1 1 .45 1 1zm-7.98 0c0 .55-.45 1-1 1s-1-.45-1-1 .45-1 1-1 1 .45 1 1zm-7.98 0c0 .55-.45 1-1 1-.56 0-1-.45-1-1s.44-1 1-1c.55 0 1 .45 1 1zm-8 0c0 .55-.43 1-1 1-.54 0-1-.45-1-1s.46-1 1-1c.57 0 1 .45 1 1zm-7.97 0c0 .55-.44 1-1 1-.55 0-1-.45-1-1s.45-1 1-1c.56 0 1 .45 1 1zm-7.98 0c0 .55-.46 1-1 1-.56 0-1-.45-1-1s.44-1 1-1c.54 0 1 .45 1 1zm-8 0c0 .55-.44 1-1 1-.55 0-1-.45-1-1s.45-1 1-1c.56 0 1 .45 1 1zm-7.97 0c0 .55-.45 1-1 1-.56 0-1-.45-1-1s.44-1 1-1c.55 0 1 .45 1 1zm-8 0c0 .55-.43 1-1 1-.54 0-1-.45-1-1s.46-1 1-1c.57 0 1 .45 1 1zm-7.97 0c0 .55-.45 1-1 1s-1-.45-1-1 .45-1 1-1 1 .45 1 1zm-7.98 0c0 .55-.45 1-1 1s-1-.45-1-1 .45-1 1-1 1 .45 1 1zm-7.98 0c0 .55-.45 1-1 1-.56 0-1-.45-1-1s.44-1 1-1c.55 0 1 .45 1 1zm-8 0c0 .55-.43 1-1 1-.54 0-1-.45-1-1s.46-1 1-1c.57 0 1 .45 1 1zm-7.97 0c0 .55-.45 1-1 1s-1-.45-1-1 .45-1 1-1 1 .45 1 1zm-7.98 0c0 .55-.45 1-1 1s-1-.45-1-1 .45-1 1-1 1 .45 1 1zm-7.98 0c0 .55-.45 1-1 1-.56 0-1-.45-1-1s.44-1 1-1c.55 0 1 .45 1 1zm-8 0c0 .55-.43 1-1 1-.54 0-1-.45-1-1s.46-1 1-1c.57 0 1 .45 1 1zm-7.97 0c0 .55-.45 1-1 1s-1-.45-1-1 .45-1 1-1 1 .45 1 1zm-7.98 0c0 .55-.45 1-1 1s-1-.45-1-1 .45-1 1-1 1 .45 1 1zm-7.98 0c0 .55-.45 1-1 1-.56 0-1-.45-1-1s.44-1 1-1c.55 0 1 .45 1 1zm-8 0c0 .55-.43 1-1 1-.54 0-1-.45-1-1s.46-1 1-1c.57 0 1 .45 1 1zm-7.97 0c0 .55-.45 1-1 1s-1-.45-1-1 .45-1 1-1 1 .45 1 1zm-7.98 0c0 .55-.46 1-1 1-.56 0-1-.45-1-1s.44-1 1-1c.54 0 1 .45 1 1zm-8 0c0 .55-.44 1-1 1-.55 0-1-.45-1-1s.45-1 1-1c.56 0 1 .45 1 1zm-7.98 0c0 .55-.44 1-1 1-.55 0-1-.45-1-1s.45-1 1-1c.56 0 1 .45 1 1zm-7.98 0c0 .55-.44 1-1 1-.55 0-1-.45-1-1s.45-1 1-1c.56 0 1 .45 1 1zm-7.98 0c0 .55-.45 1-1 1s-1-.45-1-1 .45-1 1-1 1 .45 1 1zm-7.98 0c0 .55-.45 1-1 1-.56 0-1-.45-1-1s.44-1 1-1c.55 0 1 .45 1 1zm-7.98 0c0 .55-.45 1-1 1-.56 0-1-.45-1-1s.44-1 1-1c.55 0 1 .45 1 1zm-8 0c0 .55-.43 1-1 1-.54 0-1-.45-1-1s.46-1 1-1c.57 0 1 .45 1 1zm-7.97 0c0 .55-.45 1-1 1s-1-.45-1-1 .45-1 1-1 1 .45 1 1zm-7.98 0c0 .55-.45 1-1 1s-1-.45-1-1 .45-1 1-1 1 .45 1 1zm-7.98 0c0 .55-.45 1-1 1-.56 0-1-.45-1-1s.44-1 1-1c.55 0 1 .45 1 1zm-8 0c0 .55-.43 1-1 1-.54 0-1-.45-1-1s.46-1 1-1c.57 0 1 .45 1 1zm-7.97 0c0 .55-.45 1-1 1s-1-.45-1-1 .45-1 1-1 1 .45 1 1zm-7.98 0c0 .55-.45 1-1 1s-1-.45-1-1 .45-1 1-1 1 .45 1 1zm-7.98 0c0 .55-.45 1-1 1-.56 0-1-.45-1-1s.44-1 1-1c.55 0 1 .45 1 1zm-8 0c0 .55-.43 1-1 1-.54 0-1-.45-1-1s.46-1 1-1c.57 0 1 .45 1 1zm-7.97 0c0 .55-.45 1-1 1s-1-.45-1-1 .45-1 1-1 1 .45 1 1zm-7.98 0c0 .55-.46 1-1 1-.56 0-1-.45-1-1s.44-1 1-1c.54 0 1 .45 1 1zm-8 0c0 .55-.44 1-1 1-.55 0-1-.45-1-1s.45-1 1-1c.56 0 1 .45 1 1zm-7.98 0c0 .55-.44 1-1 1-.55 0-1-.45-1-1s.45-1 1-1c.56 0 1 .45 1 1zm-7.98 0c0 .55-.45 1-1 1s-1-.45-1-1 .45-1 1-1 1 .45 1 1zm-7.98 0c0 .55-.45 1-1 1s-1-.45-1-1 .45-1 1-1 1 .45 1 1zm-7.98 0c0 .55-.45 1-1 1s-1-.45-1-1 .45-1 1-1 1 .45 1 1zm-7.98 0c0 .55-.45 1-1 1-.56 0-1-.45-1-1s.44-1 1-1c.55 0 1 .45 1 1zm-8 0c0 .55-.43 1-1 1-.54 0-1-.45-1-1s.46-1 1-1c.57 0 1 .45 1 1zm-7.97 0c0 .55-.45 1-1 1s-1-.45-1-1 .45-1 1-1 1 .45 1 1zm-7.98 0c0 .55-.45 1-1 1-.56 0-1-.45-1-1s.44-1 1-1c.55 0 1 .45 1 1zm-8 0c0 .55-.43 1-1 1-.54 0-1-.45-1-1s.46-1 1-1c.57 0 1 .45 1 1zm-7.97 0c0 .55-.45 1-1 1s-1-.45-1-1 .45-1 1-1 1 .45 1 1zm-7.98 0c0 .55-.45 1-1 1s-1-.45-1-1 .45-1 1-1 1 .45 1 1zm-7.98 0c0 .55-.45 1-1 1s-1-.45-1-1 .45-1 1-1 1 .45 1 1zm-7.98 0c0 .55-.45 1-1 1-.56 0-1-.45-1-1s.44-1 1-1c.55 0 1 .45 1 1zm-8 0c0 .55-.43 1-1 1-.54 0-1-.45-1-1s.46-1 1-1c.57 0 1 .45 1 1zm-7.97 0c0 .55-.45 1-1 1s-1-.45-1-1 .45-1 1-1 1 .45 1 1zm-7.98 0c0 .55-.46 1-1 1-.56 0-1-.45-1-1s.44-1 1-1c.54 0 1 .45 1 1zm-8 0c0 .55-.44 1-1 1-.55 0-1-.45-1-1s.45-1 1-1c.56 0 1 .45 1 1zm-7.98 0c0 .55-.44 1-1 1-.55 0-1-.45-1-1s.45-1 1-1c.56 0 1 .45 1 1zm-7.98 0c0 .55-.45 1-1 1s-1-.45-1-1 .45-1 1-1 1 .45 1 1zm-7.98 0c0 .55-.45 1-1 1s-1-.45-1-1 .45-1 1-1 1 .45 1 1zm-7.98 0c0 .55-.45 1-1 1-.56 0-1-.45-1-1s.44-1 1-1c.55 0 1 .45 1 1zm-8 0c0 .55-.43 1-1 1-.54 0-1-.45-1-1s.46-1 1-1c.57 0 1 .45 1 1zm-7.97 0c0 .55-.44 1-1 1-.54 0-1-.45-1-1s.46-1 1-1c.56 0 1 .45 1 1zm-7.97 0c0 .55-.45 1-1 1s-1-.45-1-1 .45-1 1-1 1 .45 1 1zm-7.98 0c0 .55-.45 1-1 1-.56 0-1-.45-1-1s.44-1 1-1c.55 0 1 .45 1 1zm-8 0c0 .55-.43 1-1 1-.54 0-1-.45-1-1s.46-1 1-1c.57 0 1 .45 1 1zm-7.97 0c0 .55-.44 1-1 1-.55 0-1-.45-1-1s.45-1 1-1c.56 0 1 .45 1 1zm-7.98 0c0 .55-.45 1-1 1s-1-.45-1-1 .45-1 1-1 1 .45 1 1zm-6-6c0 .55-.45 1-1 1s-1-.45-1-1 .45-1 1-1 1 .45 1 1zm0-8c0 .55-.45 1-1 1s-1-.45-1-1 .45-1 1-1 1 .45 1 1zm0-8c0 .55-.45 1-1 1s-1-.45-1-1 .45-1 1-1 1 .45 1 1zm0-8c0 .55-.45 1-1 1s-1-.45-1-1 .45-1 1-1 1 .45 1 1zm0-8c0 .55-.45 1-1 1s-1-.45-1-1 .45-1 1-1 1 .45 1 1zm0-8c0 .55-.45 1-1 1s-1-.45-1-1 .45-1 1-1 1 .45 1 1zm0-8c0 .55-.45 1-1 1s-1-.45-1-1 .45-1 1-1 1 .45 1 1zm0-8c0 .55-.45 1-1 1s-1-.45-1-1 .45-1 1-1 1 .45 1 1zm0-8c0 .55-.45 1-1 1s-1-.45-1-1 .45-1 1-1 1 .45 1 1zm0-8c0 .55-.45 1-1 1s-1-.45-1-1 .45-1 1-1 1 .45 1 1zm0-8c0 .55-.45 1-1 1s-1-.45-1-1 .45-1 1-1 1 .45 1 1zm0-8c0 .55-.45 1-1 1s-1-.45-1-1 .45-1 1-1 1 .45 1 1zm0-8c0 .55-.45 1-1 1s-1-.45-1-1 .45-1 1-1 1 .45 1 1zm0-8c0 .55-.45 1-1 1s-1-.45-1-1 .45-1 1-1 1 .45 1 1zm0-8c0 .55-.45 1-1 1s-1-.45-1-1 .45-1 1-1 1 .45 1 1zm0-8c0 .55-.45 1-1 1s-1-.45-1-1 .45-1 1-1 1 .45 1 1zm0-8c0 .55-.45 1-1 1s-1-.45-1-1 .45-1 1-1 1 .45 1 1zm0-8c0 .55-.45 1-1 1s-1-.45-1-1 .45-1 1-1 1 .45 1 1zm0-8c0 .55-.45 1-1 1s-1-.45-1-1 .45-1 1-1 1 .45 1 1zm0-8c0 .55-.45 1-1 1s-1-.45-1-1 .45-1 1-1 1 .45 1 1zm0-8c0 .55-.45 1-1 1s-1-.45-1-1 .45-1 1-1 1 .45 1 1zm0-8c0 .55-.45 1-1 1s-1-.45-1-1 .45-1 1-1 1 .45 1 1zm0-8c0 .55-.45 1-1 1s-1-.45-1-1 .45-1 1-1 1 .45 1 1zm0-8c0 .55-.45 1-1 1s-1-.45-1-1 .45-1 1-1 1 .45 1 1zm0-8c0 .55-.45 1-1 1s-1-.45-1-1 .45-1 1-1 1 .45 1 1zm0-8c0 .55-.45 1-1 1s-1-.45-1-1 .45-1 1-1 1 .45 1 1zm0-8c0 .55-.45 1-1 1s-1-.45-1-1 .45-1 1-1 1 .45 1 1zm0-8c0 .55-.45 1-1 1s-1-.45-1-1 .45-1 1-1 1 .45 1 1zm0-8c0 .55-.45 1-1 1s-1-.45-1-1 .45-1 1-1 1 .45 1 1zm0-8c0 .55-.45 1-1 1s-1-.45-1-1 .45-1 1-1 1 .45 1 1zm0-8c0 .55-.45 1-1 1s-1-.45-1-1 .45-1 1-1 1 .45 1 1zm0-8c0 .55-.45 1-1 1s-1-.45-1-1 .45-1 1-1 1 .45 1 1zm0-8c0 .55-.45 1-1 1s-1-.45-1-1 .45-1 1-1 1 .45 1 1zm0-8c0 .55-.45 1-1 1s-1-.45-1-1 .45-1 1-1 1 .45 1 1zm0-8c0 .55-.45 1-1 1s-1-.45-1-1 .45-1 1-1 1 .45 1 1zm0-8c0 .55-.45 1-1 1s-1-.45-1-1 .45-1 1-1 1 .45 1 1zm0-8c0 .55-.45 1-1 1s-1-.45-1-1 .45-1 1-1 1 .45 1 1zm0-8c0 .55-.45 1-1 1s-1-.45-1-1 .45-1 1-1 1 .45 1 1zm0-8c0 .55-.45 1-1 1s-1-.45-1-1 .45-1 1-1 1 .45 1 1zm0-8c0 .55-.45 1-1 1s-1-.45-1-1 .45-1 1-1 1 .45 1 1zm0-8c0 .55-.45 1-1 1s-1-.45-1-1 .45-1 1-1 1 .45 1 1zm0-8c0 .55-.45 1-1 1s-1-.45-1-1 .45-1 1-1 1 .45 1 1zm0-8c0 .55-.45 1-1 1s-1-.45-1-1 .45-1 1-1 1 .45 1 1zm0-8c0 .55-.45 1-1 1s-1-.45-1-1 .45-1 1-1 1 .45 1 1zm0-8c0 .55-.45 1-1 1s-1-.45-1-1 .45-1 1-1 1 .45 1 1zm0-8c0 .55-.45 1-1 1s-1-.45-1-1 .45-1 1-1 1 .45 1 1zm0-8c0 .55-.45 1-1 1s-1-.45-1-1 .45-1 1-1 1 .45 1 1zm0-8c0 .55-.45 1-1 1s-1-.45-1-1 .45-1 1-1 1 .45 1 1zm0-8c0 .55-.45 1-1 1s-1-.45-1-1 .45-1 1-1 1 .45 1 1zm0-8c0 .55-.45 1-1 1s-1-.45-1-1 .45-1 1-1 1 .45 1 1zm0-8c0 .55-.45 1-1 1s-1-.45-1-1 .45-1 1-1 1 .45 1 1zm0-8c0 .55-.45 1-1 1s-1-.45-1-1 .45-1 1-1 1 .45 1 1zm0-8c0 .55-.45 1-1 1s-1-.45-1-1 .45-1 1-1 1 .45 1 1zm0-8c0 .55-.45 1-1 1s-1-.45-1-1 .45-1 1-1 1 .45 1 1zm0-8c0 .55-.45 1-1 1s-1-.45-1-1 .45-1 1-1 1 .45 1 1zm0-8c0 .55-.45 1-1 1s-1-.45-1-1 .45-1 1-1 1 .45 1 1zm0-8c0 .55-.45 1-1 1s-1-.45-1-1 .45-1 1-1 1 .45 1 1zm0-8c0 .55-.45 1-1 1s-1-.45-1-1 .45-1 1-1 1 .45 1 1zm0-8c0 .55-.45 1-1 1s-1-.45-1-1 .45-1 1-1 1 .45 1 1zm0-8c0 .55-.45 1-1 1s-1-.45-1-1 .45-1 1-1 1 .45 1 1zm0-8c0 .55-.45 1-1 1s-1-.45-1-1 .45-1 1-1 1 .45 1 1zm0-8c0 .55-.45 1-1 1s-1-.45-1-1 .45-1 1-1 1 .45 1 1zm0-8c0 .55-.45 1-1 1s-1-.45-1-1 .45-1 1-1 1 .45 1 1zm0-8c0 .55-.45 1-1 1s-1-.45-1-1 .45-1 1-1 1 .45 1 1zm0-8c0 .55-.45 1-1 1s-1-.45-1-1 .45-1 1-1 1 .45 1 1zm0-8c0 .55-.45 1-1 1s-1-.45-1-1 .45-1 1-1 1 .45 1 1zm0-8c0 .55-.45 1-1 1s-1-.45-1-1 .45-1 1-1 1 .45 1 1zm0-8c0 .55-.45 1-1 1s-1-.45-1-1 .45-1 1-1 1 .45 1 1zm0-8c0 .55-.45 1-1 1s-1-.45-1-1 .45-1 1-1 1 .45 1 1zm0-8c0 .55-.45 1-1 1s-1-.45-1-1 .45-1 1-1 1 .45 1 1zm0-8c0 .55-.45 1-1 1s-1-.45-1-1 .45-1 1-1 1 .45 1 1zm0-8c0 .55-.45 1-1 1s-1-.45-1-1 .45-1 1-1 1 .45 1 1zm0-8c0 .55-.45 1-1 1s-1-.45-1-1 .45-1 1-1 1 .45 1 1zm0-8c0 .55-.45 1-1 1s-1-.45-1-1 .45-1 1-1 1 .45 1 1zm0-8c0 .55-.45 1-1 1s-1-.45-1-1 .45-1 1-1 1 .45 1 1zm0-8c0 .55-.45 1-1 1s-1-.45-1-1 .45-1 1-1 1 .45 1 1zm0-8c0 .55-.45 1-1 1s-1-.45-1-1 .45-1 1-1 1 .45 1 1zm0-8c0 .55-.45 1-1 1s-1-.45-1-1 .45-1 1-1 1 .45 1 1zm0-8c0 .55-.45 1-1 1s-1-.45-1-1 .45-1 1-1 1 .45 1 1zm0-8c0 .55-.45 1-1 1s-1-.45-1-1 .45-1 1-1 1 .45 1 1zm0-8c0 .55-.45 1-1 1s-1-.45-1-1 .45-1 1-1 1 .45 1 1zm0-8c0 .55-.45 1-1 1s-1-.45-1-1 .45-1 1-1 1 .45 1 1zm0-8c0 .55-.45 1-1 1s-1-.45-1-1 .45-1 1-1 1 .45 1 1zm0-8c0 .55-.45 1-1 1s-1-.45-1-1 .45-1 1-1 1 .45 1 1zm0-8c0 .55-.45 1-1 1s-1-.45-1-1 .45-1 1-1 1 .45 1 1zm0-8c0 .55-.45 1-1 1s-1-.45-1-1 .45-1 1-1 1 .45 1 1zm0-8c0 .55-.45 1-1 1s-1-.45-1-1 .45-1 1-1 1 .45 1 1zm0-8c0 .55-.45 1-1 1s-1-.45-1-1 .45-1 1-1 1 .45 1 1zm0-8c0 .55-.45 1-1 1s-1-.45-1-1 .45-1 1-1 1 .45 1 1zm0-8c0 .55-.45 1-1 1s-1-.45-1-1 .45-1 1-1 1 .45 1 1zm0-8c0 .55-.45 1-1 1s-1-.45-1-1 .45-1 1-1 1 .45 1 1zm0-8c0 .55-.45 1-1 1s-1-.45-1-1 .45-1 1-1 1 .45 1 1zm0-8c0 .55-.45 1-1 1s-1-.45-1-1 .45-1 1-1 1 .45 1 1zm0-8c0 .55-.45 1-1 1s-1-.45-1-1 .45-1 1-1 1 .45 1 1zm0-8c0 .55-.45 1-1 1s-1-.45-1-1 .45-1 1-1 1 .45 1 1zm0-8c0 .55-.45 1-1 1s-1-.45-1-1 .45-1 1-1 1 .45 1 1zm0-8c0 .55-.45 1-1 1s-1-.45-1-1 .45-1 1-1 1 .45 1 1zm0-8c0 .55-.45 1-1 1s-1-.45-1-1 .45-1 1-1 1 .45 1 1zm0-8c0 .55-.45 1-1 1s-1-.45-1-1 .45-1 1-1 1 .45 1 1zm0-8c0 .55-.45 1-1 1s-1-.45-1-1 .45-1 1-1 1 .45 1 1zm0-8c0 .55-.45 1-1 1s-1-.45-1-1 .45-1 1-1 1 .45 1 1z" fill="#5e5e5e"/><path d="M1856-1344a6 6 0 0 1 6-6h1452a6 6 0 0 1 6 6v658a6 6 0 0 1-6 6H1862a6 6 0 0 1-6-6z" fill-opacity="0"/><path d="M1881.92-1350h2m9.95 0h2m9.95 0h19.92m9.95 0h2m9.95 0h2m9.95 0h19.9m9.97 0h2m9.95 0h2m9.95 0h19.92m9.95 0h2m9.95 0h2m9.95 0h19.92m9.96 0h2m9.95 0h2m9.95 0h19.92m9.96 0h2m9.96 0h2m9.95 0h19.93m9.95 0h2m9.95 0h2m9.96 0h19.9m9.96 0h2m9.95 0h2m9.96 0h19.92m9.96 0h2m9.95 0h1.98m9.96 0h19.92m9.96 0h2m9.95 0h2m9.95 0h19.92m9.96 0h2m9.95 0h2m9.95 0h19.9m9.97 0h2m9.95 0h2m9.95 0h19.92m9.95 0h2m9.95 0h2m9.95 0h19.92m9.96 0h2m9.95 0h2m9.95 0h19.92m9.96 0h2m9.96 0h2m9.95 0h19.93m9.95 0h2m9.95 0h2m9.96 0h19.9m9.96 0h2m9.95 0h2m9.96 0h19.92m9.96 0h2m9.95 0h1.98m9.96 0h19.92m9.96 0h2m9.95 0h2m9.95 0h19.92m9.96 0h2m9.95 0h2m9.95 0h19.9m9.97 0h2m9.95 0h2m9.95 0h19.92m9.95 0h2m9.95 0h2m9.95 0h19.92m9.96 0h2m9.95 0h2m9.95 0h19.92m9.96 0h2m9.96 0h2m9.95 0h19.93m9.95 0h2m9.95 0h2m9.96 0h19.9m9.96 0h2m9.95 0h2m9.96 0h19.92m9.96 0h2m9.95 0h1.98m9.96 0h9.96l.94.07.9.22.88.35.8.5.72.6.6.72.5.8.37.88.23.9.07.95v10.15m0 10.16v2.04m0 10.15v2.03m0 10.15v20.3m0 10.16v2.03m0 10.16v2.03m0 10.15v20.32m0 10.15v2.04m0 10.16v2.03m0 10.15v20.3m0 10.16v2.04m0 10.15v2.03m0 10.15v20.3m0 10.16v2.03m0 10.16v2.03m0 10.15v20.32m0 10.15v2.04m0 10.16v2.03m0 10.15v20.3m0 10.16v2.04m0 10.15v2.02m0 10.16v20.3m0 10.16v2.03m0 10.16v2.03m0 10.15v20.32m0 10.15v2.04m0 10.16v2.03m0 10.15v20.3m0 10.16v2.04m0 10.15v2.02m0 10.16v20.3m0 10.16v2.03m0 10.16v2.03m0 10.15v20.32m0 10.15v2.04m0 10.16v2.03m0 10.15V-686l-.07.94-.22.9-.35.88-.5.8-.6.72-.72.6-.8.5-.88.37-.9.23-.95.07h-9.96m-9.96 0h-2m-9.95 0h-2m-9.95 0h-19.92m-9.96 0h-2m-9.95 0h-2m-9.95 0h-19.9m-9.97 0h-2m-9.95 0h-2m-9.95 0h-19.92m-9.95 0h-2m-9.95 0h-2m-9.95 0h-19.92m-9.96 0h-2m-9.95 0h-2m-9.95 0h-19.92m-9.96 0h-2m-9.96 0h-2m-9.95 0h-19.93m-9.95 0h-2m-9.95 0h-2m-9.96 0h-19.9m-9.96 0h-2m-9.95 0h-2m-9.96 0h-19.92m-9.96 0h-2m-9.95 0h-1.98m-9.96 0h-19.92m-9.96 0h-2m-9.95 0h-2m-9.95 0h-19.92m-9.96 0h-2m-9.95 0h-2m-9.95 0h-19.9m-9.97 0h-2m-9.95 0h-2m-9.95 0h-19.92m-9.95 0h-2m-9.95 0h-2m-9.95 0h-19.92m-9.96 0h-2m-9.95 0h-2m-9.95 0h-19.92m-9.96 0h-2m-9.96 0h-2m-9.95 0h-19.93m-9.95 0h-2m-9.95 0h-2m-9.96 0h-19.9m-9.96 0h-2m-9.95 0h-2m-9.96 0h-19.92m-9.96 0h-2m-9.95 0h-1.98m-9.96 0h-19.92m-9.96 0h-2m-9.95 0h-2m-9.95 0h-19.92m-9.96 0h-2m-9.95 0h-2m-9.95 0h-19.9m-9.97 0h-2m-9.95 0h-2m-9.95 0h-19.92m-9.95 0h-2m-9.95 0h-2m-9.95 0h-19.92m-9.96 0h-2m-9.95 0h-2m-9.95 0h-19.92m-9.96 0h-2m-9.96 0h-2m-9.95 0h-19.93m-9.95 0h-2m-9.96 0h-2m-9.95 0h-19.9m-9.96 0h-2m-9.95 0h-2m-9.96 0h-19.92m-9.96 0h-2m-9.95 0h-1.98m-9.96 0H1862l-.94-.07-.9-.22-.88-.35-.8-.5-.72-.6-.6-.72-.5-.8-.37-.88-.23-.9-.07-.95v-10.15m0-10.16v-2.04m0-10.15v-2.02m0-10.16v-20.3m0-10.16v-2.03m0-10.16v-2.03m0-10.15v-20.32m0-10.15V-818m0-10.16v-2.03m0-10.15v-20.3m0-10.16v-2.04m0-10.15V-885m0-10.16v-20.3m0-10.16v-2.03m0-10.16v-2.03m0-10.15v-20.32m0-10.15v-2.04m0-10.16v-2.03m0-10.15v-20.3m0-10.16v-2.04m0-10.15v-2.03m0-10.15v-20.3m0-10.16v-2.03m0-10.16v-2.03m0-10.15v-20.32m0-10.15v-2.04m0-10.16v-2.03m0-10.15v-20.3m0-10.16v-2.04m0-10.15v-2.03m0-10.15v-20.3m0-10.16v-2.03m0-10.16v-2.03m0-10.15v-20.32m0-10.15v-2.04m0-10.16v-2.03m0-10.15V-1344l.07-.94.22-.9.35-.88.5-.8.6-.72.72-.6.8-.5.88-.37.9-.23.95-.07h9.96" stroke="#6db1ff" stroke-width="2" fill="none"/><path d="M1719.66-1176.83c-1.14.1-2.05.34-2.96.8l-39.44 19.43c-2.16 1.02-3.64 2.84-4.1 5.23l-9.77 43.76c-.47 2.04-.13 4.08 1 5.9.13.23.24.34.47.57l27.28 35c1.48 1.94 3.52 2.97 5.9 2.97h43.9c2.38 0 4.42-1.03 5.9-2.96l27.28-35c1.48-1.94 2.05-4.2 1.48-6.6l-9.77-43.65c-.45-2.4-1.93-4.2-4.1-5.23l-39.43-19.44c-1.25-.57-2.4-.9-3.64-.8z" stroke="#000" stroke-opacity="0" stroke-width="3.83" fill="#326ce5"/><path d="M1719.64-1180c-1.2.12-2.16.36-3.12.84l-41.64 20.52c-2.28 1.08-3.84 3-4.32 5.52l-10.32 46.2c-.48 2.16-.12 4.32 1.08 6.24.12.24.24.36.48.6l28.8 36.96c1.56 2.04 3.72 3.12 6.24 3.12h46.32c2.52 0 4.68-1.08 6.24-3.12l28.8-36.96c1.56-2.04 2.16-4.44 1.56-6.84l-10.32-46.2c-.48-2.52-2.04-4.44-4.32-5.52l-41.64-20.52c-1.32-.6-2.52-.96-3.84-.84zm0 3.24c1.32-.12 2.4.12 3.6.72l39.6 19.44c2.04 1.08 3.48 2.88 4.08 5.28l9.72 43.68c.48 2.4 0 4.56-1.44 6.48l-27.36 35.04c-1.44 1.92-3.48 3-5.88 3h-43.92c-2.4 0-4.44-1.08-5.88-3l-27.36-35.04c-.12-.12-.24-.36-.36-.6-1.2-1.8-1.56-3.72-1.08-5.88l9.72-43.68c.6-2.4 1.92-4.2 4.08-5.28l39.6-19.44c.96-.48 1.8-.72 2.88-.84z" stroke="#000" stroke-opacity="0" stroke-width="3.83" fill="#fff"/><path d="M1711.56-1072.6c-1 0-1.74-.26-2.25-.8-.5-.54-.74-1.3-.74-2.23 0-1.06.34-1.87 1-2.44.7-.56 1.78-.87 3.28-.9l2.23-.04v-.57c0-.83-.17-1.42-.5-1.8-.36-.35-.9-.53-1.63-.53-.73 0-1.27.13-1.6.4-.35.25-.55.66-.62 1.23l-1.7-.16c.27-1.84 1.6-2.76 3.96-2.76 1.24 0 2.2.3 2.8.9.64.6.96 1.43.96 2.55v4.4c0 .5.07.9.2 1.15.12.25.37.37.72.37.16 0 .34-.02.54-.06v1.07c-.4.1-.84.15-1.27.15-.6 0-1.06-.16-1.34-.5-.28-.33-.44-.85-.47-1.55h-.06c-.42.78-.92 1.34-1.47 1.67-.56.3-1.24.47-2.04.47zm.38-1.26c.6 0 1.13-.15 1.6-.42.48-.3.85-.68 1.12-1.17.27-.5.4-1 .4-1.53v-.84l-1.8.04c-.77 0-1.36.1-1.77.24-.4.15-.7.38-.92.7-.2.32-.32.73-.32 1.24 0 .55.14.98.43 1.28.28.3.7.46 1.24.46zM1727.87-1077.93c0 3.56-1.22 5.35-3.65 5.35-1.53 0-2.56-.6-3.08-1.8h-.04c0 .07.03.6.03 1.63v4h-1.65v-12.17c0-1.05-.02-1.74-.05-2.1h1.6l.02.3.03.7c.03.33.03.54.03.66h.05c.3-.62.68-1.1 1.16-1.37.5-.3 1.13-.45 1.92-.45 1.22 0 2.14.42 2.74 1.27.6.83.9 2.15.9 3.97zm-1.73.03c0-1.42-.2-2.44-.56-3.04-.38-.63-.97-.93-1.78-.93-.66 0-1.17.15-1.54.43-.37.28-.65.73-.84 1.33-.2.58-.3 1.38-.3 2.33 0 1.35.22 2.33.64 2.97.4.63 1.1.95 2.02.95.82 0 1.4-.3 1.78-.92.38-.62.58-1.66.58-3.13zM1729.92-1085.17v-1.63h1.65v1.63zm0 12.4V-1083h1.65v10.23z" stroke="#000" stroke-opacity="0" fill="#fff"/><path d="M1719.87-1157.56c-.94 0-26.54 12.94-26.88 13.62-.8 1.6-6.68 29.38-6.35 30 .2.32 4.4 5.85 9.34 12.18l9 11.6h29.54l9.4-12.13 9.4-12.06-3.26-14.9c-1.8-8.15-3.47-15.02-3.6-15.15-.47-.5-26.08-13.16-26.6-13.16zm1.6 13.62c1.2.06 1.33 1.95 4 2.15 3.47.28 3.13-3.02 5.74-.73 2.67 2.36-.6 2.5.27 6 .8 3.5 3.8 2.1 2.47 5.4-1.33 3.36-2.47.2-5.47 2.08-2.93 1.9-.73 4.38-4.2 4.1-3.47-.26-.93-2.35-3.6-4.7-2.67-2.3-4.27.6-5.07-2.9-.87-3.44 1.87-1.62 3.2-4.92 1.34-3.37-1.87-4.05 1.07-5.93l1-.48c.2-.06.4-.06.6-.06zm3.47 3.9c-.54 0-1 .07-1.54.2-2.6.82-4.13 3.7-3.33 6.48.8 2.76 3.6 4.3 6.27 3.5 2.67-.88 4.2-3.77 3.4-6.47-.67-2.22-2.6-3.7-4.8-3.7zm-19.94 8.9c.26 0 .6.07 1 .2 3.2 1-.07 2.77 2.2 5.26 2.33 2.56 4.2-.67 4.93 2.7.8 3.3-2.33 1.28-3.27 4.58-1 3.3 2.67 3.37.2 5.73-2.4 2.36-2.26-1.42-5.53-.6-3.27.73-1.47 4.03-4.67 3.02-3.2-1 .07-2.7-2.27-5.25-2.27-2.5-4.14.67-4.88-2.63-.8-3.37 2.27-1.35 3.27-4.65 1-3.3-2.67-3.37-.2-5.73 2.4-2.37 2.26 1.4 5.53.66 2.8-.67 1.87-3.3 3.67-3.3zm23.74 3.64c.33 0 .66.07 1.13.27 3.67 1.48-1.13 3.7 1.67 6.54 2.87 2.84 4.87-2.28 6.47 1.42 1.6 3.78-3.4 1.82-3.33 5.87.14 4.1 5 1.94 3.6 5.7-1.46 3.8-3.66-1.2-6.4 1.77-2.73 2.96 2.2 4.98-1.4 6.6-3.6 1.68-1.73-3.5-5.67-3.37-3.93.07-1.86 5.12-5.53 3.64s1.13-3.7-1.67-6.54c-2.87-2.83-4.87 2.3-6.47-1.48-1.6-3.7 3.4-1.75 3.34-5.86-.14-4.05-5-1.9-3.6-5.66 1.46-3.85 3.66 1.2 6.4-1.76 2.73-2.96-2.2-4.98 1.4-6.6 3.6-1.7 1.73 3.44 5.67 3.37 3.46-.06 2.26-3.97 4.4-3.9zm-25.8 1.75c-2.8 0-5.08 2.3-5.08 5.2 0 2.82 2.27 5.18 5.07 5.18 2.8 0 5-2.36 5-5.2 0-2.9-2.2-5.18-5-5.18zm21.6 4.92c-4.07 0-7.4 3.44-7.4 7.68 0 4.25 3.33 7.62 7.4 7.62 4.13 0 7.47-3.37 7.47-7.62 0-4.24-3.33-7.68-7.46-7.68z" stroke="#000" stroke-opacity="0" stroke-width="0" fill="#fff"/><use xlink:href="#a" transform="matrix(1,0,0,1,1630,-1051) translate(14.135802469135797 17.77777777777778)"/><use xlink:href="#b" transform="matrix(1,0,0,1,1630,-1051) translate(58.58024691358025 17.77777777777778)"/><use xlink:href="#c" transform="matrix(1,0,0,1,1630,-1051) translate(100.55555555555556 17.77777777777778)"/><path d="M1975.66-1396.83c-1.14.1-2.05.34-2.96.8l-39.44 19.43c-2.16 1.02-3.64 2.84-4.1 5.23l-9.77 43.76c-.47 2.04-.13 4.08 1 5.9.13.23.24.34.47.57l27.28 35c1.48 1.94 3.52 2.97 5.9 2.97h43.9c2.38 0 4.42-1.03 5.9-2.96l27.28-35c1.48-1.94 2.05-4.2 1.48-6.6l-9.77-43.65c-.45-2.4-1.93-4.2-4.1-5.23l-39.43-19.44c-1.25-.57-2.4-.9-3.64-.8z" stroke="#000" stroke-opacity="0" stroke-width="3.83" fill="#326ce5"/><path d="M1975.64-1400c-1.2.12-2.16.36-3.12.84l-41.64 20.52c-2.28 1.08-3.84 3-4.32 5.52l-10.32 46.2c-.48 2.16-.12 4.32 1.08 6.24.12.24.24.36.48.6l28.8 36.96c1.56 2.04 3.72 3.12 6.24 3.12h46.32c2.52 0 4.68-1.08 6.24-3.12l28.8-36.96c1.56-2.04 2.16-4.44 1.56-6.84l-10.32-46.2c-.48-2.52-2.04-4.44-4.32-5.52l-41.64-20.52c-1.32-.6-2.52-.96-3.84-.84zm0 3.24c1.32-.12 2.4.12 3.6.72l39.6 19.44c2.04 1.08 3.48 2.88 4.08 5.28l9.72 43.68c.48 2.4 0 4.56-1.44 6.48l-27.36 35.04c-1.44 1.92-3.48 3-5.88 3h-43.92c-2.4 0-4.44-1.08-5.88-3l-27.36-35.04c-.12-.12-.24-.36-.36-.6-1.2-1.8-1.56-3.72-1.08-5.88l9.72-43.68c.6-2.4 1.92-4.2 4.08-5.28l39.6-19.44c.96-.48 1.8-.72 2.88-.84z" stroke="#000" stroke-opacity="0" stroke-width="3.83" fill="#fff"/><path d="M1951.56-1361.78h-2.42v5.5h2.7v-5.3h5.04v-2.73h-5.32zm7.95.2h5.33v-2.73h-5.32zm8 0h5.33v-2.73h-5.32zm8 0h5.33v-2.73h-5.32zm7.96 0h5.32v-2.73h-5.32zm8 0h5.32v-2.73h-5.32zm7.95 0h.77v2h2.68v-3.37c0-.87-.43-1.36-1.34-1.36h-2.1zm.77 10.2h2.68v-5.5h-2.68zm-51.03 3.3h2.7v-5.5h-2.7zm51.03 4.92h2.68v-5.45h-2.68zm-51.03 3.3h2.7v-5.5h-2.7zm51.03 4.96h2.68v-5.5h-2.68zm-51.03 3.26h2.7v-5.5h-2.7zm51.03 4.96h2.68v-5.5h-2.68zm-51.03 3.3h2.7v-5.5h-2.7zm51.03 4.92h2.68v-5.5h-2.68zm-51.03 1.4c-.05.88.32 1.42 1.34 1.37h1.83v-2.7h-.47v-2.25h-2.7zm5.86 1.37h5.3v-2.7h-5.3zm7.94 0h5.38v-2.7h-5.38zm8 0h5.33v-2.7h-5.32zm8 0h5.33v-2.7h-5.32zm7.96 0h5.32v-2.7h-5.32zm8 0h5.32v-2.7h-5.32z" stroke="#000" stroke-opacity="0" stroke-width="3.77" fill="#fff"/><use xlink:href="#d" transform="matrix(1,0,0,1,1886,-1271) translate(70.27777777777777 17.77777777777778)"/><use xlink:href="#e" transform="matrix(1,0,0,1,1886,-1271) translate(27.716049382716044 44.44444444444444)"/><use xlink:href="#f" transform="matrix(1,0,0,1,1886,-1271) translate(33.888888888888886 44.44444444444444)"/><path d="M2650.4-1073.7c-.15-.26-.3-.45-.3-.63-2.15-4.22-4.12-8.44-6.26-12.66-.16-.35-.16-.63.16-1 3.3-4.12 6.58-8.25 9.87-12.28 0-.2.16-.37.16-.55-1 .18-1.8.45-2.8.73-3.94 1.2-8.05 2.3-11.83 3.4-.5.08-.66 0-.82-.28-2.14-4.04-4.44-8.07-6.74-12.1-.16-.2-.33-.37-.5-.56l-.5 3.2-1.96 11.38c0 .37-.16.83-.16 1.2 0 .36-.17.54-.5.64-4.76 1.56-9.37 3.2-13.97 4.77-.33.1-.5.18-.66.36 3.77 1.66 7.55 3.3 11.5 4.96-.16.1-.33.2-.33.28-2.47 1.65-4.77 3.3-7.23 4.95-.33.18-.5.18-.82.08-2.8-1.37-5.76-2.75-8.55-4.12-1.32-.64-2.47-1.47-3.3-2.57-2.13-2.67-1.63-5.7 1-7.62.98-.55 1.97-1 2.95-1.38 4.6-1.65 9.2-3.12 13.65-4.67.5-.2.66-.37.66-.83.65-3.76 1.3-7.6 1.97-11.37.33-2.02.5-4.04 1.3-5.96.34-.74.84-1.38 1.33-2.02 1.8-2.1 4.44-2.2 6.25-.18.65.73 1.3 1.56 1.8 2.38 2.14 3.76 4.1 7.43 6.25 11.2.33.45.5.54 1 .45l15.27-4.4c1.16-.28 2.14-.46 3.3-.2 2.3.47 3.28 2.4 2.46 4.87-.33 1.1-1 2.02-1.64 2.94-3.62 4.5-7.07 9-10.7 13.5-.32.35-.32.63-.15 1.1 2.13 4.3 4.27 8.6 6.4 13 .5 1.02 1 2.12 1 3.3 0 2.67-1.8 4.87-4.28 5.33-1.5.18-2.8-.1-4.12-.55-3.12-1.1-6.4-2.1-9.53-3.12-.33-.1-.5-.27-.5-.64-.5-2.38-.82-4.77-1.15-7.24v-.28c3.62 1.1 7.23 2.1 11 3.3" stroke="#000" stroke-opacity="0" stroke-width=".93" fill="#e25a1c"/><path d="M2644-1038.1c-2.95-.1-5.75-.1-8.7-.1-.34 0-.5-.1-.83-.46-3.3-5.6-6.9-11.2-10.2-16.78-.16-.1-.32-.28-.5-.64-.64 6.05-1.47 12-2.12 17.88h-7.57c0-.83.17-1.56.17-2.3.82-6.14 1.64-12.1 2.3-18.24.66-5.78 1.48-11.56 2.14-17.34 0-.18.15-.45.32-.55 2.46-1.74 5.1-3.57 7.72-5.4 0 0 .17 0 .33-.1l-2.46 19.35.17.1c4.1-4.87 8.22-9.82 12.33-14.77.16.83.33 1.47.33 2.1l1 5.5c0 .38-.18.56-.34.84-2.64 3-5.28 5.95-7.9 8.97-.17.1-.33.28-.33.46 0 .1 0 .28.16.37 4.6 6.88 9.04 13.75 13.64 20.63.17.18.17.28.33.37v.1M2554.58-1056.36c-.17-.64-.33-1.56-.5-2.38-1.3-4.22-5.26-6.5-9.37-5.5-4.6 1.1-7.88 4.95-8.37 10-.33 3.66 1.48 7.23 4.93 8.6 2.8 1.02 5.6.65 8.06-1 3.28-2.1 5.1-5.22 5.26-9.72zm-20.06 15.68c-.16 1.75-.5 3.5-.66 5.14-.33 2.3-.5 4.58-.82 6.88 0 .27-.16.36-.33.36h-6.23c-.17 0-.17 0-.33-.1l.5-3.2c.48-3.76.8-7.52 1.3-11.28.5-4.22 1-8.53 1.65-12.84 1.14-7.52 7.22-14.03 14.13-15.68 4.1-.9 8.05-.46 11.5 2.02 3.62 2.38 5.6 5.96 6.1 10.45.64 6.24-1.5 11.47-5.6 15.87-2.8 2.84-6.1 4.67-9.87 5.32-3.94.55-7.56-.1-10.85-2.57-.15-.1-.3-.2-.48-.3M2531.07-1076.53c-2.47 1.83-4.6 3.66-6.9 5.5-.33-.64-.66-1.3-1-1.84-.98-1.46-2.3-2.56-4.1-2.65-1.32-.2-2.63.36-3.62 1.56-.98 1-.98 2.47-.16 3.66.8 1.3 1.8 2.57 2.95 3.76 1.64 1.93 3.45 3.85 5.1 5.87 1.64 1.84 2.8 3.85 3.12 6.42.5 2.93 0 5.7-1.32 8.35-2.46 4.76-6.24 7.6-11.18 8.43-2.3.37-4.44.28-6.57-.37-2.96-.9-4.93-2.93-6.25-5.77-.33-1.02-.82-2.03-1.15-3.13 2.47-1.47 4.93-2.84 7.4-4.22.16.18.16.37.16.55.5.92.82 1.84 1.32 2.66 1.64 2.48 4.1 3.3 6.57 2.02.66-.28 1.32-.73 1.8-1.3 1.66-1.54 1.98-3.65.83-5.67-.65-1.1-1.64-2.1-2.46-3.1-1.98-2.4-4.1-4.78-6.1-7.25-1.3-1.65-2.3-3.67-2.62-5.87-.32-2.48.17-4.86 1.32-6.88 3.12-5.23 7.4-7.9 13.15-7.7 3.3.18 5.75 1.83 7.9 4.5.48.82 1.14 1.64 1.64 2.56M2586.3-1048.93c-.33 3.12-.82 6.05-1.15 9 0 .17-.16.35-.16.45-5.76 2.75-13.16 2.38-17.76-3.2-2.47-3.13-3.46-6.7-3.3-10.65.34-9.26 7.4-17.43 15.95-18.53 5.1-.73 9.36.74 12.82 4.96 2.3 2.84 3.45 6.23 3.28 10-.16 2.47-.5 4.94-.82 7.33-.33 3.48-.82 7.06-1.32 10.45v.46h-6.73c.16-.82.16-1.56.32-2.38.5-4.04 1-8.07 1.32-12.1.33-2.48.16-5.05-.82-7.34-1.15-2.48-3.13-3.76-5.6-4.04-5.25-.64-10.18 3.2-11.33 8.7-.66 3.68.5 7.16 3.12 9.1 2.63 1.82 5.42 1.82 8.38.63 1.32-.63 2.63-1.55 3.78-2.92M2614.9-1070.94l-.98 7.52h-4.1c-1.16 0-2.3.73-2.64 1.93 0 .46-.16.92-.16 1.38-.66 5.78-1.48 11.56-2.14 17.24l-.5 4.4h-7.06c.16-1.1.16-2.2.33-3.2.5-3.77.98-7.53 1.48-11.2.32-3.3.65-6.5 1.15-9.7.65-4.42 4.6-8.27 8.7-8.45 1.98-.1 3.95 0 5.93 0M2652.55-1038.1v-3.22l-1.3 3.2h-.34l-1.14-3.2v3.2h-.66v-3.84h1l.97 2.93 1.15-2.93h.83v3.85zm-5.26-3.3v3.3h-.5v-3.3h-1.15v-.56h2.8v.55h-1.16M2540.44-1081.85h1.64l-.33-2.85zm1.97 1.83h-2.95l-.82 1.93h-2.14l4.6-9.07h1.97l1.48 9.08h-1.8l-.34-1.92M2552.77-1085.34h-1l-.32 2.1h1c.65 0 1.14-.45 1.14-1.27 0-.56-.34-.84-.83-.84zm-2.47-1.83h2.63c1.48 0 2.47.92 2.47 2.48 0 1.93-1.32 3.3-3.13 3.3h-1.14l-.66 3.3h-1.65l1.48-9.07M2561.48-1081.85h1.64l-.32-2.85zm1.97 1.83h-2.95l-.83 1.93h-2.13l4.6-9.07h1.97l1.5 9.08h-1.98l-.17-1.92M2574.63-1078.37c-.66.28-1.3.46-1.97.46-2.14 0-3.62-1.84-3.62-4.13 0-2.85 2.3-5.23 4.93-5.23.66 0 1.32.1 1.8.46l-.15 2.1c-.5-.36-1-.73-1.8-.73-1.5 0-2.8 1.47-2.8 3.2 0 1.4.65 2.4 1.97 2.4.65 0 1.47-.28 1.96-.74l-.33 2.2M2585.8-1081.76h-3.77l-.5 3.67h-1.8l1.48-9.07h1.82l-.66 3.58h3.78l.5-3.57h1.8l-1.48 9.08h-1.8l.65-3.66M2592.06-1078.1l1.48-9.07h4.76l-.33 1.83h-2.95l-.17 1.75h2.63l-.33 1.84h-2.63l-.33 1.83h2.95l-.33 1.84h-4.76" stroke="#000" stroke-opacity="0" stroke-width=".93" fill="#3c3a3e"/><path d="M3030.4-1225.4c-.15-.27-.3-.45-.3-.63-2.15-4.22-4.12-8.44-6.26-12.66-.16-.36-.16-.63.16-1 3.3-4.13 6.58-8.25 9.87-12.3 0-.17.16-.35.16-.54-1 .2-1.8.46-2.8.74-3.94 1.2-8.05 2.3-11.83 3.4-.5.08-.66 0-.82-.28-2.14-4.04-4.44-8.08-6.74-12.1-.16-.2-.33-.38-.5-.56l-.5 3.2-1.96 11.38c0 .37-.16.83-.16 1.2 0 .36-.17.54-.5.63-4.76 1.56-9.37 3.2-13.97 4.77-.33.1-.5.2-.66.37 3.77 1.66 7.55 3.3 11.5 4.96-.16.1-.33.18-.33.28-2.47 1.65-4.77 3.3-7.23 4.95-.33.17-.5.17-.82.08-2.8-1.38-5.76-2.75-8.55-4.13-1.32-.64-2.47-1.46-3.3-2.56-2.13-2.67-1.63-5.7 1-7.63.98-.55 1.97-1 2.95-1.37 4.6-1.65 9.2-3.12 13.65-4.68.5-.18.66-.36.66-.82.65-3.76 1.3-7.6 1.97-11.37.33-2.02.5-4.04 1.3-5.96.34-.74.84-1.38 1.33-2.02 1.8-2.1 4.44-2.2 6.25-.18.65.73 1.3 1.55 1.8 2.38 2.14 3.76 4.1 7.43 6.25 11.2.33.45.5.54 1 .45l15.27-4.4c1.16-.28 2.14-.47 3.3-.2 2.3.47 3.28 2.4 2.46 4.87-.33 1.1-1 2.02-1.64 2.94-3.62 4.5-7.07 9-10.7 13.48-.32.37-.32.65-.15 1.1 2.13 4.32 4.27 8.63 6.4 13.03.5 1.02 1 2.12 1 3.3 0 2.67-1.8 4.87-4.28 5.33-1.5.18-2.8-.1-4.12-.55-3.12-1.1-6.4-2.1-9.53-3.12-.33-.1-.5-.28-.5-.64-.5-2.4-.82-4.77-1.15-7.25v-.27c3.62 1.1 7.23 2.1 11 3.3" stroke="#000" stroke-opacity="0" stroke-width=".93" fill="#e25a1c"/><path d="M3024-1189.8c-2.95-.1-5.75-.1-8.7-.1-.34 0-.5-.1-.83-.46-3.3-5.6-6.9-11.2-10.2-16.78-.16-.1-.32-.28-.5-.65-.64 6.07-1.47 12.03-2.12 17.9h-7.57c0-.83.17-1.56.17-2.3.82-6.14 1.64-12.1 2.3-18.24.66-5.78 1.48-11.56 2.14-17.34 0-.18.15-.45.32-.55 2.46-1.74 5.1-3.57 7.72-5.4 0 0 .17 0 .33-.1l-2.46 19.35.17.1c4.1-4.87 8.22-9.82 12.33-14.77.16.82.33 1.47.33 2.1l1 5.5c0 .38-.18.56-.34.83-2.64 3.03-5.28 5.96-7.9 9-.17.08-.33.27-.33.45 0 .1 0 .28.16.37 4.6 6.87 9.04 13.75 13.64 20.63.17.18.17.27.33.37v.1M2934.58-1208.06c-.17-.64-.33-1.56-.5-2.38-1.3-4.22-5.26-6.52-9.37-5.5-4.6 1.1-7.88 4.95-8.37 10-.33 3.66 1.48 7.23 4.93 8.6 2.8 1.02 5.6.65 8.06-1 3.28-2.1 5.1-5.23 5.26-9.72zm-20.06 15.68c-.16 1.74-.5 3.5-.66 5.14-.33 2.3-.5 4.58-.82 6.87 0 .28-.16.37-.33.37h-6.23c-.17 0-.17 0-.33-.1l.5-3.2c.48-3.76.8-7.52 1.3-11.28.5-4.22 1-8.53 1.65-12.84 1.14-7.52 7.22-14.03 14.13-15.68 4.1-.92 8.05-.46 11.5 2.02 3.62 2.38 5.6 5.96 6.1 10.45.64 6.24-1.5 11.46-5.6 15.87-2.8 2.84-6.1 4.67-9.87 5.32-3.94.55-7.56-.1-10.85-2.57-.15-.1-.3-.2-.48-.3M2911.07-1228.23c-2.47 1.83-4.6 3.66-6.9 5.5-.33-.64-.66-1.3-1-1.84-.98-1.47-2.3-2.57-4.1-2.66-1.32-.18-2.63.37-3.62 1.56-.98 1-.98 2.48-.16 3.67.8 1.28 1.8 2.57 2.95 3.76 1.64 1.93 3.45 3.85 5.1 5.87 1.64 1.83 2.8 3.85 3.12 6.42.5 2.93 0 5.68-1.32 8.34-2.46 4.76-6.24 7.6-11.18 8.43-2.3.37-4.44.28-6.57-.37-2.96-.9-4.93-2.93-6.25-5.77-.33-1.02-.82-2.03-1.15-3.13 2.47-1.47 4.93-2.85 7.4-4.22.16.18.16.37.16.55.5.92.82 1.83 1.32 2.66 1.64 2.48 4.1 3.3 6.57 2.02.66-.28 1.32-.74 1.8-1.3 1.66-1.55 1.98-3.65.83-5.67-.65-1.1-1.64-2.1-2.46-3.1-1.98-2.4-4.1-4.78-6.1-7.26-1.3-1.65-2.3-3.66-2.62-5.86-.32-2.48.17-4.86 1.32-6.88 3.12-5.23 7.4-7.9 13.15-7.7 3.3.18 5.75 1.83 7.9 4.5.48.8 1.14 1.64 1.64 2.56M2966.3-1200.63c-.33 3.12-.82 6.05-1.15 8.98 0 .2-.16.37-.16.46-5.76 2.76-13.16 2.4-17.76-3.2-2.47-3.12-3.46-6.7-3.3-10.63.34-9.27 7.4-17.43 15.95-18.53 5.1-.73 9.36.73 12.82 4.95 2.3 2.84 3.45 6.23 3.28 10-.16 2.46-.5 4.94-.82 7.32-.33 3.5-.82 7.07-1.32 10.46v.46h-6.73c.16-.83.16-1.56.32-2.4.5-4.02 1-8.06 1.32-12.1.33-2.47.16-5.04-.82-7.33-1.15-2.46-3.13-3.75-5.6-4.02-5.25-.64-10.18 3.2-11.33 8.7-.66 3.68.5 7.16 3.12 9.1 2.63 1.82 5.42 1.82 8.38.63 1.32-.63 2.63-1.55 3.78-2.92M2994.9-1222.64l-.98 7.52h-4.1c-1.16 0-2.3.73-2.64 1.92 0 .46-.16.92-.16 1.38-.66 5.78-1.48 11.55-2.14 17.24l-.5 4.4h-7.06c.16-1.1.16-2.2.33-3.2.5-3.77.98-7.53 1.48-11.2.32-3.3.65-6.5 1.15-9.72.65-4.4 4.6-8.25 8.7-8.43 1.98-.1 3.95 0 5.93 0M3032.55-1189.8v-3.22l-1.3 3.2h-.34l-1.14-3.2v3.2h-.66v-3.84h1l.97 2.93 1.15-2.93h.83v3.85zm-5.26-3.3v3.3h-.5v-3.3h-1.15v-.56h2.8v.55h-1.16M2920.44-1233.55h1.64l-.33-2.85zm1.97 1.83h-2.95l-.82 1.93h-2.14l4.6-9.07h1.97l1.48 9.08h-1.8l-.34-1.92M2932.77-1237.04h-1l-.32 2.1h1c.65 0 1.14-.45 1.14-1.27 0-.56-.34-.84-.83-.84zm-2.47-1.83h2.63c1.48 0 2.47.9 2.47 2.47 0 1.93-1.32 3.3-3.13 3.3h-1.14l-.66 3.3h-1.65l1.48-9.07M2941.48-1233.55h1.64l-.32-2.85zm1.97 1.83h-2.95l-.83 1.93h-2.13l4.6-9.07h1.97l1.5 9.08h-1.98l-.17-1.92M2954.63-1230.07c-.66.28-1.3.46-1.97.46-2.14 0-3.62-1.85-3.62-4.14 0-2.84 2.3-5.22 4.93-5.22.66 0 1.32.1 1.8.45l-.15 2.1c-.5-.36-1-.73-1.8-.73-1.5 0-2.8 1.47-2.8 3.2 0 1.38.65 2.4 1.97 2.4.65 0 1.47-.28 1.96-.74l-.33 2.2M2965.8-1233.46h-3.77l-.5 3.67h-1.8l1.48-9.07h1.82l-.66 3.57h3.78l.5-3.57h1.8l-1.48 9.08h-1.8l.65-3.66M2972.06-1229.8l1.48-9.07h4.76l-.33 1.83h-2.95l-.17 1.74h2.63l-.33 1.84h-2.63l-.33 1.83h2.95l-.33 1.84h-4.76" stroke="#000" stroke-opacity="0" stroke-width=".93" fill="#3c3a3e"/><path d="M3030.4-1073.7c-.15-.26-.3-.45-.3-.63-2.15-4.22-4.12-8.44-6.26-12.66-.16-.35-.16-.63.16-1 3.3-4.12 6.58-8.25 9.87-12.28 0-.2.16-.37.16-.55-1 .18-1.8.45-2.8.73-3.94 1.2-8.05 2.3-11.83 3.4-.5.08-.66 0-.82-.28-2.14-4.04-4.44-8.07-6.74-12.1-.16-.2-.33-.37-.5-.56l-.5 3.2-1.96 11.38c0 .37-.16.83-.16 1.2 0 .36-.17.54-.5.64-4.76 1.56-9.37 3.2-13.97 4.77-.33.1-.5.18-.66.36 3.77 1.66 7.55 3.3 11.5 4.96-.16.1-.33.2-.33.28-2.47 1.65-4.77 3.3-7.23 4.95-.33.18-.5.18-.82.08-2.8-1.37-5.76-2.75-8.55-4.12-1.32-.64-2.47-1.47-3.3-2.57-2.13-2.67-1.63-5.7 1-7.62.98-.55 1.97-1 2.95-1.38 4.6-1.65 9.2-3.12 13.65-4.67.5-.2.66-.37.66-.83.65-3.76 1.3-7.6 1.97-11.37.33-2.02.5-4.04 1.3-5.96.34-.74.84-1.38 1.33-2.02 1.8-2.1 4.44-2.2 6.25-.18.65.73 1.3 1.56 1.8 2.38 2.14 3.76 4.1 7.43 6.25 11.2.33.45.5.54 1 .45l15.27-4.4c1.16-.28 2.14-.46 3.3-.2 2.3.47 3.28 2.4 2.46 4.87-.33 1.1-1 2.02-1.64 2.94-3.62 4.5-7.07 9-10.7 13.5-.32.35-.32.63-.15 1.1 2.13 4.3 4.27 8.6 6.4 13 .5 1.02 1 2.12 1 3.3 0 2.67-1.8 4.87-4.28 5.33-1.5.18-2.8-.1-4.12-.55-3.12-1.1-6.4-2.1-9.53-3.12-.33-.1-.5-.27-.5-.64-.5-2.38-.82-4.77-1.15-7.24v-.28c3.62 1.1 7.23 2.1 11 3.3" stroke="#000" stroke-opacity="0" stroke-width=".93" fill="#e25a1c"/><path d="M3024-1038.1c-2.95-.1-5.75-.1-8.7-.1-.34 0-.5-.1-.83-.46-3.3-5.6-6.9-11.2-10.2-16.78-.16-.1-.32-.28-.5-.64-.64 6.05-1.47 12-2.12 17.88h-7.57c0-.83.17-1.56.17-2.3.82-6.14 1.64-12.1 2.3-18.24.66-5.78 1.48-11.56 2.14-17.34 0-.18.15-.45.32-.55 2.46-1.74 5.1-3.57 7.72-5.4 0 0 .17 0 .33-.1l-2.46 19.35.17.1c4.1-4.87 8.22-9.82 12.33-14.77.16.83.33 1.47.33 2.1l1 5.5c0 .38-.18.56-.34.84-2.64 3-5.28 5.95-7.9 8.97-.17.1-.33.28-.33.46 0 .1 0 .28.16.37 4.6 6.88 9.04 13.75 13.64 20.63.17.18.17.28.33.37v.1M2934.58-1056.36c-.17-.64-.33-1.56-.5-2.38-1.3-4.22-5.26-6.5-9.37-5.5-4.6 1.1-7.88 4.95-8.37 10-.33 3.66 1.48 7.23 4.93 8.6 2.8 1.02 5.6.65 8.06-1 3.28-2.1 5.1-5.22 5.26-9.72zm-20.06 15.68c-.16 1.75-.5 3.5-.66 5.14-.33 2.3-.5 4.58-.82 6.88 0 .27-.16.36-.33.36h-6.23c-.17 0-.17 0-.33-.1l.5-3.2c.48-3.76.8-7.52 1.3-11.28.5-4.22 1-8.53 1.65-12.84 1.14-7.52 7.22-14.03 14.13-15.68 4.1-.9 8.05-.46 11.5 2.02 3.62 2.38 5.6 5.96 6.1 10.45.64 6.24-1.5 11.47-5.6 15.87-2.8 2.84-6.1 4.67-9.87 5.32-3.94.55-7.56-.1-10.85-2.57-.15-.1-.3-.2-.48-.3M2911.07-1076.53c-2.47 1.83-4.6 3.66-6.9 5.5-.33-.64-.66-1.3-1-1.84-.98-1.46-2.3-2.56-4.1-2.65-1.32-.2-2.63.36-3.62 1.56-.98 1-.98 2.47-.16 3.66.8 1.3 1.8 2.57 2.95 3.76 1.64 1.93 3.45 3.85 5.1 5.87 1.64 1.84 2.8 3.85 3.12 6.42.5 2.93 0 5.7-1.32 8.35-2.46 4.76-6.24 7.6-11.18 8.43-2.3.37-4.44.28-6.57-.37-2.96-.9-4.93-2.93-6.25-5.77-.33-1.02-.82-2.03-1.15-3.13 2.47-1.47 4.93-2.84 7.4-4.22.16.18.16.37.16.55.5.92.82 1.84 1.32 2.66 1.64 2.48 4.1 3.3 6.57 2.02.66-.28 1.32-.73 1.8-1.3 1.66-1.54 1.98-3.65.83-5.67-.65-1.1-1.64-2.1-2.46-3.1-1.98-2.4-4.1-4.78-6.1-7.25-1.3-1.65-2.3-3.67-2.62-5.87-.32-2.48.17-4.86 1.32-6.88 3.12-5.23 7.4-7.9 13.15-7.7 3.3.18 5.75 1.83 7.9 4.5.48.82 1.14 1.64 1.64 2.56M2966.3-1048.93c-.33 3.12-.82 6.05-1.15 9 0 .17-.16.35-.16.45-5.76 2.75-13.16 2.38-17.76-3.2-2.47-3.13-3.46-6.7-3.3-10.65.34-9.26 7.4-17.43 15.95-18.53 5.1-.73 9.36.74 12.82 4.96 2.3 2.84 3.45 6.23 3.28 10-.16 2.47-.5 4.94-.82 7.33-.33 3.48-.82 7.06-1.32 10.45v.46h-6.73c.16-.82.16-1.56.32-2.38.5-4.04 1-8.07 1.32-12.1.33-2.48.16-5.05-.82-7.34-1.15-2.48-3.13-3.76-5.6-4.04-5.25-.64-10.18 3.2-11.33 8.7-.66 3.68.5 7.16 3.12 9.1 2.63 1.82 5.42 1.82 8.38.63 1.32-.63 2.63-1.55 3.78-2.92M2994.9-1070.94l-.98 7.52h-4.1c-1.16 0-2.3.73-2.64 1.93 0 .46-.16.92-.16 1.38-.66 5.78-1.48 11.56-2.14 17.24l-.5 4.4h-7.06c.16-1.1.16-2.2.33-3.2.5-3.77.98-7.53 1.48-11.2.32-3.3.65-6.5 1.15-9.7.65-4.42 4.6-8.27 8.7-8.45 1.98-.1 3.95 0 5.93 0M3032.55-1038.1v-3.22l-1.3 3.2h-.34l-1.14-3.2v3.2h-.66v-3.84h1l.97 2.93 1.15-2.93h.83v3.85zm-5.26-3.3v3.3h-.5v-3.3h-1.15v-.56h2.8v.55h-1.16M2920.44-1081.85h1.64l-.33-2.85zm1.97 1.83h-2.95l-.82 1.93h-2.14l4.6-9.07h1.97l1.48 9.08h-1.8l-.34-1.92M2932.77-1085.34h-1l-.32 2.1h1c.65 0 1.14-.45 1.14-1.27 0-.56-.34-.84-.83-.84zm-2.47-1.83h2.63c1.48 0 2.47.92 2.47 2.48 0 1.93-1.32 3.3-3.13 3.3h-1.14l-.66 3.3h-1.65l1.48-9.07M2941.48-1081.85h1.64l-.32-2.85zm1.97 1.83h-2.95l-.83 1.93h-2.13l4.6-9.07h1.97l1.5 9.08h-1.98l-.17-1.92M2954.63-1078.37c-.66.28-1.3.46-1.97.46-2.14 0-3.62-1.84-3.62-4.13 0-2.85 2.3-5.23 4.93-5.23.66 0 1.32.1 1.8.46l-.15 2.1c-.5-.36-1-.73-1.8-.73-1.5 0-2.8 1.47-2.8 3.2 0 1.4.65 2.4 1.97 2.4.65 0 1.47-.28 1.96-.74l-.33 2.2M2965.8-1081.76h-3.77l-.5 3.67h-1.8l1.48-9.07h1.82l-.66 3.58h3.78l.5-3.57h1.8l-1.48 9.08h-1.8l.65-3.66M2972.06-1078.1l1.48-9.07h4.76l-.33 1.83h-2.95l-.17 1.75h2.63l-.33 1.84h-2.63l-.33 1.83h2.95l-.33 1.84h-4.76" stroke="#000" stroke-opacity="0" stroke-width=".93" fill="#3c3a3e"/><path d="M3030.4-922c-.15-.26-.3-.45-.3-.63-2.15-4.22-4.12-8.44-6.26-12.65-.16-.37-.16-.65.16-1 3.3-4.14 6.58-8.27 9.87-12.3 0-.18.16-.37.16-.55-1 .18-1.8.46-2.8.73-3.94 1.2-8.05 2.3-11.83 3.4-.5.1-.66 0-.82-.28-2.14-4.04-4.44-8.07-6.74-12.1-.16-.2-.33-.37-.5-.55l-.5 3.2-1.96 11.38c0 .36-.16.82-.16 1.2 0 .35-.17.54-.5.63-4.76 1.56-9.37 3.2-13.97 4.77-.33.1-.5.18-.66.37 3.77 1.64 7.55 3.3 11.5 4.95-.16.1-.33.18-.33.27-2.47 1.65-4.77 3.3-7.23 4.95-.33.18-.5.18-.82.1-2.8-1.4-5.76-2.77-8.55-4.14-1.32-.64-2.47-1.47-3.3-2.57-2.13-2.67-1.63-5.7 1-7.62.98-.55 1.97-1 2.95-1.38 4.6-1.65 9.2-3.1 13.65-4.67.5-.2.66-.37.66-.83.65-3.76 1.3-7.6 1.97-11.37.33-2.02.5-4.03 1.3-5.96.34-.73.84-1.38 1.33-2.02 1.8-2.1 4.44-2.2 6.25-.18.65.73 1.3 1.56 1.8 2.38 2.14 3.76 4.1 7.43 6.25 11.2.33.45.5.54 1 .45l15.27-4.4c1.16-.28 2.14-.46 3.3-.18 2.3.45 3.28 2.38 2.46 4.86-.33 1.1-1 2-1.64 2.93-3.62 4.5-7.07 9-10.7 13.5-.32.36-.32.63-.15 1.1 2.13 4.3 4.27 8.6 6.4 13 .5 1.02 1 2.12 1 3.3 0 2.67-1.8 4.87-4.28 5.33-1.5.2-2.8-.1-4.12-.55-3.12-1.1-6.4-2.1-9.53-3.12-.33-.1-.5-.27-.5-.64-.5-2.38-.82-4.77-1.15-7.24v-.28c3.62 1.1 7.23 2.1 11 3.3" stroke="#000" stroke-opacity="0" stroke-width=".93" fill="#e25a1c"/><path d="M3024-886.4c-2.95-.1-5.75-.1-8.7-.1-.34 0-.5-.1-.83-.46-3.3-5.6-6.9-11.18-10.2-16.78-.16-.1-.32-.27-.5-.64-.64 6.05-1.47 12-2.12 17.88h-7.57c0-.82.17-1.56.17-2.3.82-6.14 1.64-12.1 2.3-18.24.66-5.78 1.48-11.56 2.14-17.33 0-.2.15-.46.32-.55 2.46-1.75 5.1-3.58 7.72-5.4 0 0 .17 0 .33-.1l-2.46 19.34.17.1c4.1-4.86 8.22-9.82 12.33-14.77.16.83.33 1.47.33 2.1l1 5.5c0 .38-.18.56-.34.84-2.64 3-5.28 5.95-7.9 8.98-.17.1-.33.27-.33.45 0 .1 0 .28.16.37 4.6 6.88 9.04 13.76 13.64 20.63.17.2.17.28.33.37v.1M2934.58-904.66c-.17-.64-.33-1.56-.5-2.38-1.3-4.22-5.26-6.5-9.37-5.5-4.6 1.1-7.88 4.95-8.37 10-.33 3.66 1.48 7.24 4.93 8.6 2.8 1.02 5.6.66 8.06-1 3.28-2.1 5.1-5.22 5.26-9.72zm-20.06 15.68c-.16 1.75-.5 3.5-.66 5.14-.33 2.3-.5 4.6-.82 6.88 0 .27-.16.37-.33.37h-6.23c-.17 0-.17 0-.33-.1l.5-3.2c.48-3.76.8-7.52 1.3-11.28.5-4.2 1-8.52 1.65-12.83 1.14-7.53 7.22-14.04 14.13-15.7 4.1-.9 8.05-.45 11.5 2.02 3.62 2.4 5.6 5.96 6.1 10.46.64 6.23-1.5 11.46-5.6 15.86-2.8 2.84-6.1 4.68-9.87 5.32-3.94.55-7.56-.1-10.85-2.57-.15-.1-.3-.2-.48-.28M2911.07-924.83c-2.47 1.83-4.6 3.67-6.9 5.5-.33-.64-.66-1.28-1-1.83-.98-1.47-2.3-2.57-4.1-2.66-1.32-.18-2.63.37-3.62 1.56-.98 1-.98 2.47-.16 3.66.8 1.3 1.8 2.57 2.95 3.76 1.64 1.93 3.45 3.86 5.1 5.87 1.64 1.84 2.8 3.86 3.12 6.42.5 2.94 0 5.7-1.32 8.35-2.46 4.77-6.24 7.6-11.18 8.43-2.3.37-4.44.28-6.57-.36-2.96-.92-4.93-2.94-6.25-5.78-.33-1.02-.82-2.03-1.15-3.13 2.47-1.47 4.93-2.84 7.4-4.22.16.2.16.37.16.55.5.92.82 1.84 1.32 2.66 1.64 2.48 4.1 3.3 6.57 2.02.66-.27 1.32-.73 1.8-1.28 1.66-1.56 1.98-3.67.83-5.7-.65-1.1-1.64-2.1-2.46-3.1-1.98-2.4-4.1-4.77-6.1-7.25-1.3-1.65-2.3-3.67-2.62-5.87-.32-2.48.17-4.86 1.32-6.88 3.12-5.22 7.4-7.88 13.15-7.7 3.3.18 5.75 1.83 7.9 4.5.48.82 1.14 1.64 1.64 2.56M2966.3-897.23c-.33 3.12-.82 6.05-1.15 9 0 .17-.16.36-.16.45-5.76 2.75-13.16 2.38-17.76-3.2-2.47-3.13-3.46-6.7-3.3-10.65.34-9.26 7.4-17.42 15.95-18.52 5.1-.74 9.36.73 12.82 4.95 2.3 2.84 3.45 6.23 3.28 10-.16 2.47-.5 4.95-.82 7.33-.33 3.48-.82 7.06-1.32 10.45v.46h-6.73c.16-.82.16-1.56.32-2.38.5-4.04 1-8.07 1.32-12.1.33-2.48.16-5.05-.82-7.34-1.15-2.48-3.13-3.76-5.6-4.04-5.25-.64-10.18 3.2-11.33 8.7-.66 3.68.5 7.17 3.12 9.1 2.63 1.83 5.42 1.83 8.38.63 1.32-.63 2.63-1.55 3.78-2.92M2994.9-919.24l-.98 7.52h-4.1c-1.16 0-2.3.74-2.64 1.93 0 .47-.16.92-.16 1.38-.66 5.78-1.48 11.56-2.14 17.24l-.5 4.4h-7.06c.16-1.1.16-2.2.33-3.2.5-3.76.98-7.52 1.48-11.2.32-3.3.65-6.5 1.15-9.7.65-4.4 4.6-8.26 8.7-8.45 1.98-.1 3.95 0 5.93 0M3032.55-886.4v-3.22l-1.3 3.2h-.34l-1.14-3.2v3.2h-.66v-3.84h1l.97 2.94 1.15-2.94h.83v3.85zm-5.26-3.3v3.3h-.5v-3.3h-1.15v-.56h2.8v.55h-1.16M2920.44-930.15h1.64l-.33-2.84zm1.97 1.83h-2.95l-.82 1.93h-2.14l4.6-9.07h1.97l1.48 9.08h-1.8l-.34-1.92M2932.77-933.63h-1l-.32 2.1h1c.65 0 1.14-.45 1.14-1.28 0-.56-.34-.83-.83-.83zm-2.47-1.84h2.63c1.48 0 2.47.92 2.47 2.48 0 1.93-1.32 3.3-3.13 3.3h-1.14l-.66 3.3h-1.65l1.48-9.07M2941.48-930.15h1.64l-.32-2.84zm1.97 1.83h-2.95l-.83 1.93h-2.13l4.6-9.07h1.97l1.5 9.08h-1.98l-.17-1.92M2954.63-926.66c-.66.27-1.3.45-1.97.45-2.14 0-3.62-1.84-3.62-4.13 0-2.85 2.3-5.23 4.93-5.23.66 0 1.32.1 1.8.46l-.15 2.1c-.5-.36-1-.73-1.8-.73-1.5 0-2.8 1.47-2.8 3.2 0 1.4.65 2.4 1.97 2.4.65 0 1.47-.28 1.96-.74l-.33 2.2M2965.8-930.06h-3.77l-.5 3.67h-1.8l1.48-9.07h1.82l-.66 3.58h3.78l.5-3.57h1.8l-1.48 9.08h-1.8l.65-3.66M2972.06-926.4l1.48-9.07h4.76l-.33 1.84h-2.95l-.17 1.74h2.63l-.33 1.84h-2.63l-.33 1.84h2.95l-.33 1.83h-4.76" stroke="#000" stroke-opacity="0" stroke-width=".93" fill="#3c3a3e"/><path d="M2059.66-856.83c-1.14.1-2.05.34-2.96.8l-39.44 19.43c-2.16 1.02-3.64 2.84-4.1 5.23l-9.77 43.76c-.47 2.04-.13 4.08 1 5.9.13.23.24.34.47.57l27.28 35c1.48 1.94 3.52 2.97 5.9 2.97h43.9c2.38 0 4.42-1.03 5.9-2.96l27.28-35c1.48-1.94 2.05-4.22 1.48-6.6l-9.77-43.65c-.45-2.4-1.93-4.2-4.1-5.23l-39.43-19.44c-1.25-.57-2.4-.9-3.64-.8z" stroke="#000" stroke-opacity="0" stroke-width="0" fill="#326ce5"/><path d="M2059.64-860c-1.2.12-2.16.36-3.12.84l-41.64 20.52c-2.28 1.08-3.84 3-4.32 5.52l-10.32 46.2c-.48 2.16-.12 4.32 1.08 6.24.12.24.24.36.48.6l28.8 36.96c1.56 2.04 3.72 3.12 6.24 3.12h46.32c2.52 0 4.68-1.08 6.24-3.12l28.8-36.96c1.56-2.04 2.16-4.44 1.56-6.84l-10.32-46.2c-.48-2.52-2.04-4.44-4.32-5.52l-41.64-20.52c-1.32-.6-2.52-.96-3.84-.84zm0 3.12c1.32 0 2.4.24 3.6.84l39.6 19.44c2.04 1.08 3.48 2.88 4.08 5.28l9.72 43.68c.48 2.4 0 4.56-1.44 6.48l-27.36 35.04c-1.44 1.92-3.48 3-5.88 3h-43.92c-2.4 0-4.44-1.08-5.88-3l-27.36-35.04c-.12-.12-.24-.36-.36-.6-1.2-1.8-1.56-3.72-1.08-5.88l9.72-43.68c.6-2.4 1.92-4.2 4.08-5.28l39.6-19.44c.96-.48 1.8-.72 2.88-.84z" stroke="#000" stroke-opacity="0" stroke-width="0" fill="#fff"/><path d="M2035.9-817.4l24.1-7.2 24.1 7.2-24.1 7.2zM2035.9-814.64v26.4l22.45 12.84.12-32.33zM2084.1-814.64v26.4l-22.45 12.84-.12-32.33z" stroke="#000" stroke-opacity="0" fill="#fff"/><use xlink:href="#g" transform="matrix(1,0,0,1,1970,-731) translate(61.69753086419753 17.77777777777778)"/><path d="M1720.76-806.04l.06.82.2.76.3.73.4.67.5.6.6.5.67.4.7.3.77.2.83.06h12.3l-.17 2h-12.2l-1.07-.08-1.07-.26-1.02-.42-.94-.57-.84-.72-.7-.83-.58-.94-.42-1.02-.26-1.06-.08-1.06v-235.54h2zm281.4 5.04v2h-107.1l.07-1-.08-1z" stroke="#5e5e5e" stroke-width=".05" fill="#5e5e5e"/><path d="M2002.94-799h-.8v-2h1.24z" fill="#5e5e5e"/><path d="M2002.96-798.98h-.85V-801h1.32zm-.8-2v1.96h.76l.43-1.96z" stroke="#5e5e5e" stroke-width=".05" fill="#5e5e5e"/><path d="M1724.4-1042.5h-9.28l4.64-14.26z" fill="#5e5e5e"/><path d="M1725.77-1041.5h-12.03l6.02-18.5zm-9.27-2h6.52l-3.26-10.03z" stroke="#5e5e5e" stroke-width=".05" fill="#5e5e5e"/><path d="M1739-800a14.67 14.67 0 0 1 14.68-14.67h125.77a14.67 14.67 0 0 1 14.67 14.67 14.67 14.67 0 0 1-14.66 14.67h-125.78A14.67 14.67 0 0 1 1739-800z" stroke="#5e5e5e" stroke-width="2" fill-opacity="0"/><use xlink:href="#h" transform="matrix(1,0,0,1,1751.0106057341782,-810.6666666666666) translate(0 14.222222222222223)"/><use xlink:href="#i" transform="matrix(1,0,0,1,1751.0106057341782,-810.6666666666666) translate(19.75308641975309 14.222222222222223)"/><path d="M2352.16-1162.33v2h-90.67l.08-1.17-.06-.83zm-374.5 1.66v-2h108.18l-.16 2z" stroke="#5e5e5e" stroke-width=".05" fill="#5e5e5e"/><path d="M1977.7-1160.67h-1.03v-2h1.02z" stroke="#5e5e5e" stroke-width=".05" fill="#5e5e5e"/><path d="M2367.43-1161.33l-14.26 4.63v-9.27z" fill="#5e5e5e"/><path d="M2370.67-1161.33l-18.5 6v-12.02zm-16.5 3.26l10.03-3.26-10.03-3.26z" stroke="#5e5e5e" stroke-width=".05" fill="#5e5e5e"/><path d="M2086.75-1161.5a14.67 14.67 0 0 1 14.67-14.67h144.5a14.67 14.67 0 0 1 14.66 14.67 14.67 14.67 0 0 1-14.67 14.67h-144.48a14.67 14.67 0 0 1-14.67-14.67z" stroke="#5e5e5e" stroke-width="2" fill-opacity="0"/><use xlink:href="#j" transform="matrix(1,0,0,1,2098.7530864197724,-1172.1666666666863) translate(0.0049999999999954525 14.222222222222223)"/><use xlink:href="#k" transform="matrix(1,0,0,1,2098.7530864197724,-1172.1666666666863) translate(19.758086419753084 14.222222222222223)"/><use xlink:href="#l" transform="matrix(1,0,0,1,2098.7530864197724,-1172.1666666666863) translate(63.11611111111112 14.222222222222223)"/><use xlink:href="#m" transform="matrix(1,0,0,1,2098.7530864197724,-1172.1666666666863) translate(117.38771604938273 14.222222222222223)"/><path d="M2367.33-1079.67v2h-56.1l.07-1-.08-1zm-374.5 1.67v-2h82.64l-.15 2z" stroke="#5e5e5e" stroke-width=".05" fill="#5e5e5e"/><path d="M1991.84-1074.37l-14.27-4.63 14.27-4.63z" fill="#5e5e5e"/><path d="M1992.84-1073l-18.5-6 18.5-6zm-12.03-6l10.04 3.26v-6.52zM2368.33-1077.67h-1.02v-2h1.03z" stroke="#5e5e5e" stroke-width=".05" fill="#5e5e5e"/><path d="M2076.37-1078.67a14.67 14.67 0 0 1 14.67-14.66h204.6a14.67 14.67 0 0 1 14.66 14.66 14.67 14.67 0 0 1-14.67 14.67h-204.6a14.67 14.67 0 0 1-14.66-14.67z" stroke="#5e5e5e" stroke-width="2" fill-opacity="0"/><use xlink:href="#n" transform="matrix(1,0,0,1,2088.3703703703704,-1089.3333333333335) translate(0.0049999999999954525 14.222222222222223)"/><use xlink:href="#o" transform="matrix(1,0,0,1,2088.3703703703704,-1089.3333333333335) translate(19.758086419753084 14.222222222222223)"/><use xlink:href="#p" transform="matrix(1,0,0,1,2088.3703703703704,-1089.3333333333335) translate(88.74574074074076 14.222222222222223)"/><use xlink:href="#q" transform="matrix(1,0,0,1,2088.3703703703704,-1089.3333333333335) translate(167.60993827160496 14.222222222222223)"/><path d="M2351.16-999.67v2h-60.64l.1-1.16-.08-.84zm-374.5 1.67v-2h78.16l-.16 2z" stroke="#5e5e5e" stroke-width=".05" fill="#5e5e5e"/><path d="M1976.7-998h-1.03v-2h1.02z" stroke="#5e5e5e" stroke-width=".05" fill="#5e5e5e"/><path d="M2366.43-998.67l-14.26 4.64v-9.27z" fill="#5e5e5e"/><path d="M2369.67-998.67l-18.5 6v-12zm-16.5 3.26l10.03-3.27-10.03-3.26z" stroke="#5e5e5e" stroke-width=".05" fill="#5e5e5e"/><path d="M2055.73-998.83a14.67 14.67 0 0 1 14.66-14.67h204.54a14.67 14.67 0 0 1 14.66 14.67 14.67 14.67 0 0 1-14.66 14.66H2070.4a14.67 14.67 0 0 1-14.67-14.66z" stroke="#5e5e5e" stroke-width="2" fill-opacity="0"/><use xlink:href="#r" transform="matrix(1,0,0,1,2067.728395061729,-1009.5000000000193) translate(0.0049999999999954525 14.222222222222223)"/><use xlink:href="#s" transform="matrix(1,0,0,1,2067.728395061729,-1009.5000000000193) translate(19.758086419753084 14.222222222222223)"/><use xlink:href="#t" transform="matrix(1,0,0,1,2067.728395061729,-1009.5000000000193) translate(74.8691975308642 14.222222222222223)"/><use xlink:href="#u" transform="matrix(1,0,0,1,2067.728395061729,-1009.5000000000193) translate(96.49882716049383 14.222222222222223)"/><use xlink:href="#v" transform="matrix(1,0,0,1,2067.728395061729,-1009.5000000000193) translate(135.95561728395063 14.222222222222223)"/><path d="M2533.3-1014a6 6 0 0 1 6-6h85.8a6 6 0 0 1 6 6v36.3a6 6 0 0 1-6 6h-85.8a6 6 0 0 1-6-6z" stroke="#000" stroke-opacity="0" stroke-width="3" fill="#fff" fill-opacity="0"/><use xlink:href="#w" transform="matrix(1,0,0,1,2538.2908333333335,-1015) translate(14.49382716049383 25.09027777777778)"/><path d="M2920-858.9a6 6 0 0 1 6-6h85.8a6 6 0 0 1 6 6v36.3a6 6 0 0 1-6 6H2926a6 6 0 0 1-6-6z" stroke="#000" stroke-opacity="0" stroke-width="3" fill="#fff" fill-opacity="0"/><use xlink:href="#x" transform="matrix(1,0,0,1,2925,-859.8929867936115) translate(-5.351851851851855 23.944444444444443)"/><path d="M2773.55-1079.03l-.25 1.07-.43 1.02-.57.93-.7.83-.85.7-.93.6-1.02.4-1.07.27-1.06.08h-107.9v-2h107.83l.82-.07.76-.17.72-.3.67-.4.6-.52.5-.6.42-.65.3-.73.17-.76.02-.28h2zm95.45-145.82h-90.33l-.82.06-.76.2-.73.3-.67.4-.6.52-.5.6-.42.66-.3.72-.18.77-.06.82v108.85h-2v-108.94l.08-1.05.26-1.07.4-1 .6-.95.7-.83.84-.72.94-.57 1-.4 1.08-.27 1.06-.08h90.4z" stroke="#5e5e5e" stroke-width=".05" fill="#5e5e5e"/><path d="M2658.8-1073.12h-.58l-.24-.57-.7-1.42h1.5z" fill="#5e5e5e"/><path d="M2658.8-1073.1h-.6l-.25-.58-.72-1.47h1.6zm-1.5-2l.7 1.4.24.55h.53v-1.95z" stroke="#5e5e5e" stroke-width=".05" fill="#5e5e5e"/><path d="M2884.27-1225.85l-14.27 4.63v-9.27z" fill="#5e5e5e"/><path d="M2887.5-1225.85l-18.5 6v-12zm-16.5 3.26l10.03-3.25-10.03-3.26zM2869-1073.12h-210.24v-2H2869z" stroke="#5e5e5e" stroke-width=".05" fill="#5e5e5e"/><path d="M2658.8-1073.12h-.58l-.24-.57-.7-1.42h1.5z" fill="#5e5e5e"/><path d="M2658.8-1073.1h-.6l-.25-.58-.72-1.47h1.6zm-1.5-2l.7 1.4.24.55h.53v-1.95z" stroke="#5e5e5e" stroke-width=".05" fill="#5e5e5e"/><path d="M2884.26-1074.12l-14.27 4.63v-9.26z" fill="#5e5e5e"/><path d="M2887.5-1074.12l-18.5 6v-12zm-16.5 3.26l10.02-3.26-10.03-3.26z" stroke="#5e5e5e" stroke-width=".05" fill="#5e5e5e"/><path d="M2687.15-1095.3a14.67 14.67 0 0 1 14.67-14.65h141.63a14.67 14.67 0 0 1 14.66 14.66 14.67 14.67 0 0 1-14.65 14.68H2701.8a14.67 14.67 0 0 1-14.67-14.67z" stroke="#5e5e5e" stroke-width="2" fill-opacity="0"/><g><use xlink:href="#y" transform="matrix(1,0,0,1,2699.1488970223245,-1105.9549959639246) translate(0.0049999999999954525 14.222222222222223)"/><use xlink:href="#z" transform="matrix(1,0,0,1,2699.1488970223245,-1105.9549959639246) translate(19.758086419753084 14.222222222222223)"/><use xlink:href="#A" transform="matrix(1,0,0,1,2699.1488970223245,-1105.9549959639246) translate(101.58524691358025 14.222222222222223)"/></g><path d="M2658.76-1074.12h107.88a6 6 0 0 1 6 6v139.67a6 6 0 0 0 6 6H2869" stroke="#5e5e5e" stroke-width="2" fill="none"/><path d="M2658.8-1073.12h-.58l-.24-.57-.7-1.42h1.5z" stroke="#5e5e5e" stroke-width=".05" fill="#5e5e5e"/><path d="M2884.27-922.45L2870-917.8v-9.28z" stroke="#5e5e5e" stroke-width="2" fill="#5e5e5e"/><path d="M2758.83-893v2H2457.7l.12-1.67-.03-.33zm-829.83.67v-2h318.65l-.16 2z" stroke="#5e5e5e" stroke-width=".05" fill="#5e5e5e"/><path d="M1929.03-892.33H1928v-2h1.03z" stroke="#5e5e5e" stroke-width=".05" fill="#5e5e5e"/><path d="M2774.1-892l-14.27 4.63v-9.26z" fill="#5e5e5e"/><path d="M2777.33-892l-18.5 6v-12zm-16.5 3.26l10.03-3.26-10.03-3.26z" stroke="#5e5e5e" stroke-width=".05" fill="#5e5e5e"/><path d="M2248.52-892.67a14.67 14.67 0 0 1 14.66-14.66h178.97a14.67 14.67 0 0 1 14.66 14.66 14.67 14.67 0 0 1-14.65 14.67h-178.97a14.67 14.67 0 0 1-14.66-14.67z" stroke="#5e5e5e" stroke-width="2" fill-opacity="0"/><g><use xlink:href="#B" transform="matrix(1,0,0,1,2260.5185185185182,-903.3333333333333) translate(0.0049999999999954525 14.222222222222223)"/><use xlink:href="#k" transform="matrix(1,0,0,1,2260.5185185185182,-903.3333333333333) translate(19.758086419753084 14.222222222222223)"/><use xlink:href="#p" transform="matrix(1,0,0,1,2260.5185185185182,-903.3333333333333) translate(63.11611111111112 14.222222222222223)"/><use xlink:href="#q" transform="matrix(1,0,0,1,2260.5185185185182,-903.3333333333333) translate(141.9803086419753 14.222222222222223)"/></g><defs><path fill="#333" d="M194 0L95-120 63-95V0H30v-248h33v124l119-124h40L117-140 236 0h-42" id="C"/><path fill="#333" d="M134-131c28 9 52 24 51 62-1 50-34 73-85 73S17-19 16-69c0-36 21-54 49-61-75-25-45-126 34-121 46 3 78 18 79 63 0 33-17 51-44 57zm-34-11c31 1 46-15 46-44 0-28-17-43-47-42-29 0-46 13-45 42 1 28 16 44 46 44zm1 122c35 0 51-18 51-52 0-30-18-46-53-46-33 0-51 17-51 47 0 34 19 51 53 51" id="D"/><path fill="#333" d="M135-143c-3-34-86-38-87 0 15 53 115 12 119 90S17 21 10-45l28-5c4 36 97 45 98 0-10-56-113-15-118-90-4-57 82-63 122-42 12 7 21 19 24 35" id="E"/><g id="a"><use transform="matrix(0.06172839506172839,0,0,0.06172839506172839,0,0)" xlink:href="#C"/><use transform="matrix(0.06172839506172839,0,0,0.06172839506172839,14.814814814814813,0)" xlink:href="#D"/><use transform="matrix(0.06172839506172839,0,0,0.06172839506172839,27.160493827160494,0)" xlink:href="#E"/></g><path fill="#333" d="M205 0l-28-72H64L36 0H1l101-248h38L239 0h-34zm-38-99l-47-123c-12 45-31 82-46 123h93" id="F"/><path fill="#333" d="M30-248c87 1 191-15 191 75 0 78-77 80-158 76V0H30v-248zm33 125c57 0 124 11 124-50 0-59-68-47-124-48v98" id="G"/><path fill="#333" d="M33 0v-248h34V0H33" id="H"/><g id="b"><use transform="matrix(0.06172839506172839,0,0,0.06172839506172839,0,0)" xlink:href="#F"/><use transform="matrix(0.06172839506172839,0,0,0.06172839506172839,14.814814814814813,0)" xlink:href="#G"/><use transform="matrix(0.06172839506172839,0,0,0.06172839506172839,29.629629629629626,0)" xlink:href="#H"/></g><path fill="#333" d="M185-189c-5-48-123-54-124 2 14 75 158 14 163 119 3 78-121 87-175 55-17-10-28-26-33-46l33-7c5 56 141 63 141-1 0-78-155-14-162-118-5-82 145-84 179-34 5 7 8 16 11 25" id="I"/><path fill="#333" d="M100-194c63 0 86 42 84 106H49c0 40 14 67 53 68 26 1 43-12 49-29l28 8c-11 28-37 45-77 45C44 4 14-33 15-96c1-61 26-98 85-98zm52 81c6-60-76-77-97-28-3 7-6 17-6 28h103" id="J"/><path fill="#333" d="M114-163C36-179 61-72 57 0H25l-1-190h30c1 12-1 29 2 39 6-27 23-49 58-41v29" id="K"/><path fill="#333" d="M108 0H70L1-190h34L89-25l56-165h34" id="L"/><g id="c"><use transform="matrix(0.06172839506172839,0,0,0.06172839506172839,0,0)" xlink:href="#I"/><use transform="matrix(0.06172839506172839,0,0,0.06172839506172839,14.814814814814813,0)" xlink:href="#J"/><use transform="matrix(0.06172839506172839,0,0,0.06172839506172839,27.160493827160494,0)" xlink:href="#K"/><use transform="matrix(0.06172839506172839,0,0,0.06172839506172839,34.50617283950617,0)" xlink:href="#L"/><use transform="matrix(0.06172839506172839,0,0,0.06172839506172839,45.61728395061728,0)" xlink:href="#J"/><use transform="matrix(0.06172839506172839,0,0,0.06172839506172839,57.962962962962955,0)" xlink:href="#K"/></g><path fill="#333" d="M30-248c118-7 216 8 213 122C240-48 200 0 122 0H30v-248zM63-27c89 8 146-16 146-99s-60-101-146-95v194" id="M"/><g id="d"><use transform="matrix(0.06172839506172839,0,0,0.06172839506172839,0,0)" xlink:href="#M"/><use transform="matrix(0.06172839506172839,0,0,0.06172839506172839,15.987654320987653,0)" xlink:href="#J"/><use transform="matrix(0.06172839506172839,0,0,0.06172839506172839,28.333333333333332,0)" xlink:href="#L"/></g><path fill="#333" d="M190 0L58-211 59 0H30v-248h39L202-35l-2-213h31V0h-41" id="N"/><path fill="#333" d="M141-36C126-15 110 5 73 4 37 3 15-17 15-53c-1-64 63-63 125-63 3-35-9-54-41-54-24 1-41 7-42 31l-33-3c5-37 33-52 76-52 45 0 72 20 72 64v82c-1 20 7 32 28 27v20c-31 9-61-2-59-35zM48-53c0 20 12 33 32 33 41-3 63-29 60-74-43 2-92-5-92 41" id="O"/><path fill="#333" d="M210-169c-67 3-38 105-44 169h-31v-121c0-29-5-50-35-48C34-165 62-65 56 0H25l-1-190h30c1 10-1 24 2 32 10-44 99-50 107 0 11-21 27-35 58-36 85-2 47 119 55 194h-31v-121c0-29-5-49-35-48" id="P"/><path fill="#333" d="M115-194c55 1 70 41 70 98S169 2 115 4C84 4 66-9 55-30l1 105H24l-1-265h31l2 30c10-21 28-34 59-34zm-8 174c40 0 45-34 45-75s-6-73-45-74c-42 0-51 32-51 76 0 43 10 73 51 73" id="Q"/><path fill="#333" d="M96-169c-40 0-48 33-48 73s9 75 48 75c24 0 41-14 43-38l32 2c-6 37-31 61-74 61-59 0-76-41-82-99-10-93 101-131 147-64 4 7 5 14 7 22l-32 3c-4-21-16-35-41-35" id="R"/><g id="f"><use transform="matrix(0.06172839506172839,0,0,0.06172839506172839,0,0)" xlink:href="#N"/><use transform="matrix(0.06172839506172839,0,0,0.06172839506172839,15.987654320987653,0)" xlink:href="#O"/><use transform="matrix(0.06172839506172839,0,0,0.06172839506172839,28.333333333333332,0)" xlink:href="#P"/><use transform="matrix(0.06172839506172839,0,0,0.06172839506172839,46.79012345679012,0)" xlink:href="#J"/><use transform="matrix(0.06172839506172839,0,0,0.06172839506172839,59.1358024691358,0)" xlink:href="#E"/><use transform="matrix(0.06172839506172839,0,0,0.06172839506172839,70.24691358024691,0)" xlink:href="#Q"/><use transform="matrix(0.06172839506172839,0,0,0.06172839506172839,82.5925925925926,0)" xlink:href="#O"/><use transform="matrix(0.06172839506172839,0,0,0.06172839506172839,94.93827160493828,0)" xlink:href="#R"/><use transform="matrix(0.06172839506172839,0,0,0.06172839506172839,106.0493827160494,0)" xlink:href="#J"/></g><path fill="#333" d="M212-179c-10-28-35-45-73-45-59 0-87 40-87 99 0 60 29 101 89 101 43 0 62-24 78-52l27 14C228-24 195 4 139 4 59 4 22-46 18-125c-6-104 99-153 187-111 19 9 31 26 39 46" id="S"/><path fill="#333" d="M24 0v-261h32V0H24" id="T"/><path fill="#333" d="M24-231v-30h32v30H24zM24 0v-190h32V0H24" id="U"/><path fill="#333" d="M117-194c89-4 53 116 60 194h-32v-121c0-31-8-49-39-48C34-167 62-67 57 0H25l-1-190h30c1 10-1 24 2 32 11-22 29-35 61-36" id="V"/><path fill="#333" d="M59-47c-2 24 18 29 38 22v24C64 9 27 4 27-40v-127H5v-23h24l9-43h21v43h35v23H59v120" id="W"/><g id="g"><use transform="matrix(0.06172839506172839,0,0,0.06172839506172839,0,0)" xlink:href="#S"/><use transform="matrix(0.06172839506172839,0,0,0.06172839506172839,15.987654320987653,0)" xlink:href="#T"/><use transform="matrix(0.06172839506172839,0,0,0.06172839506172839,20.864197530864196,0)" xlink:href="#U"/><use transform="matrix(0.06172839506172839,0,0,0.06172839506172839,25.74074074074074,0)" xlink:href="#J"/><use transform="matrix(0.06172839506172839,0,0,0.06172839506172839,38.08641975308642,0)" xlink:href="#V"/><use transform="matrix(0.06172839506172839,0,0,0.06172839506172839,50.432098765432094,0)" xlink:href="#W"/></g><path fill="#333" d="M23 0v-37h61v-169l-59 37v-38l62-41h46v211h57V0H23" id="X"/><path fill="#333" d="M24 0v-54h51V0H24" id="Y"/><g id="h"><use transform="matrix(0.04938271604938272,0,0,0.04938271604938272,0,0)" xlink:href="#X"/><use transform="matrix(0.04938271604938272,0,0,0.04938271604938272,9.876543209876544,0)" xlink:href="#Y"/></g><path fill="#333" d="M137-138c1-29-70-34-71-4 15 46 118 7 119 86 1 83-164 76-172 9l43-7c4 19 20 25 44 25 33 8 57-30 24-41C81-84 22-81 20-136c-2-80 154-74 161-7" id="Z"/><path fill="#333" d="M135-194c53 0 70 44 70 98 0 56-19 98-73 100-31 1-45-17-59-34 3 33 2 69 2 105H25l-1-265h48c2 10 0 23 3 31 11-24 29-35 60-35zM114-30c33 0 39-31 40-66 0-38-9-64-40-64-56 0-55 130 0 130" id="aa"/><path fill="#333" d="M133-34C117-15 103 5 69 4 32 3 11-16 11-54c-1-60 55-63 116-61 1-26-3-47-28-47-18 1-26 9-28 27l-52-2c7-38 36-58 82-57s74 22 75 68l1 82c-1 14 12 18 25 15v27c-30 8-71 5-69-32zm-48 3c29 0 43-24 42-57-32 0-66-3-65 30 0 17 8 27 23 27" id="ab"/><path fill="#333" d="M135-150c-39-12-60 13-60 57V0H25l-1-190h47c2 13-1 29 3 40 6-28 27-53 61-41v41" id="ac"/><path fill="#333" d="M147 0L96-86 75-71V0H25v-261h50v150l67-79h53l-66 74L201 0h-54" id="ad"/><path fill="#333" d="M14-72v-43h91v43H14" id="ae"/><path fill="#333" d="M85 4C-2 5 27-109 22-190h50c7 57-23 150 33 157 60-5 35-97 40-157h50l1 190h-47c-2-12 1-28-3-38-12 25-28 42-61 42" id="af"/><path fill="#333" d="M135-194c52 0 70 43 70 98 0 56-19 99-73 100-30 1-46-15-58-35L72 0H24l1-261h50v104c11-23 29-37 60-37zM114-30c31 0 40-27 40-66 0-37-7-63-39-63s-41 28-41 65c0 36 8 64 40 64" id="ag"/><path fill="#333" d="M220-157c-53 9-28 100-34 157h-49v-107c1-27-5-49-29-50C55-147 81-57 75 0H25l-1-190h47c2 12-1 28 3 38 10-53 101-56 108 0 13-22 24-43 59-42 82 1 51 116 57 194h-49v-107c-1-25-5-48-29-50" id="ah"/><path fill="#333" d="M25-224v-37h50v37H25zM25 0v-190h50V0H25" id="ai"/><path fill="#333" d="M115-3C79 11 28 4 28-45v-112H4v-33h27l15-45h31v45h36v33H77v99c-1 23 16 31 38 25v30" id="aj"/><g id="i"><use transform="matrix(0.04938271604938272,0,0,0.04938271604938272,0,0)" xlink:href="#Z"/><use transform="matrix(0.04938271604938272,0,0,0.04938271604938272,9.876543209876544,0)" xlink:href="#aa"/><use transform="matrix(0.04938271604938272,0,0,0.04938271604938272,20.69135802469136,0)" xlink:href="#ab"/><use transform="matrix(0.04938271604938272,0,0,0.04938271604938272,30.567901234567906,0)" xlink:href="#ac"/><use transform="matrix(0.04938271604938272,0,0,0.04938271604938272,37.48148148148149,0)" xlink:href="#ad"/><use transform="matrix(0.04938271604938272,0,0,0.04938271604938272,47.35802469135803,0)" xlink:href="#ae"/><use transform="matrix(0.04938271604938272,0,0,0.04938271604938272,53.23456790123457,0)" xlink:href="#Z"/><use transform="matrix(0.04938271604938272,0,0,0.04938271604938272,63.111111111111114,0)" xlink:href="#af"/><use transform="matrix(0.04938271604938272,0,0,0.04938271604938272,73.92592592592594,0)" xlink:href="#ag"/><use transform="matrix(0.04938271604938272,0,0,0.04938271604938272,84.74074074074075,0)" xlink:href="#ah"/><use transform="matrix(0.04938271604938272,0,0,0.04938271604938272,100.54320987654322,0)" xlink:href="#ai"/><use transform="matrix(0.04938271604938272,0,0,0.04938271604938272,105.4814814814815,0)" xlink:href="#aj"/></g><path fill="#333" d="M182-182c0 78-84 86-111 141h115V0H12c-6-101 99-100 120-180 1-22-12-31-33-32-23 0-32 14-35 34l-49-3c5-45 32-70 84-70 51 0 83 22 83 69" id="ak"/><g id="j"><use transform="matrix(0.04938271604938272,0,0,0.04938271604938272,0,0)" xlink:href="#ak"/><use transform="matrix(0.04938271604938272,0,0,0.04938271604938272,9.876543209876544,0)" xlink:href="#Y"/></g><g id="k"><use transform="matrix(0.04938271604938272,0,0,0.04938271604938272,0,0)" xlink:href="#Z"/><use transform="matrix(0.04938271604938272,0,0,0.04938271604938272,9.876543209876544,0)" xlink:href="#aj"/><use transform="matrix(0.04938271604938272,0,0,0.04938271604938272,15.753086419753087,0)" xlink:href="#ab"/><use transform="matrix(0.04938271604938272,0,0,0.04938271604938272,25.629629629629633,0)" xlink:href="#ac"/><use transform="matrix(0.04938271604938272,0,0,0.04938271604938272,32.543209876543216,0)" xlink:href="#aj"/></g><path fill="#333" d="M88-194c31-1 46 15 58 34l-1-101h50l1 261h-48c-2-10 0-23-3-31C134-8 116 4 84 4 32 4 16-41 15-95c0-56 19-97 73-99zm17 164c33 0 40-30 41-66 1-37-9-64-41-64s-38 30-39 65c0 43 13 65 39 65" id="al"/><path fill="#333" d="M128 0H69L1-190h53L99-40l48-150h52" id="am"/><path fill="#333" d="M185-48c-13 30-37 53-82 52C43 2 14-33 14-96s30-98 90-98c62 0 83 45 84 108H66c0 31 8 55 39 56 18 0 30-7 34-22zm-45-69c5-46-57-63-70-21-2 6-4 13-4 21h74" id="an"/><g id="l"><use transform="matrix(0.04938271604938272,0,0,0.04938271604938272,0,0)" xlink:href="#al"/><use transform="matrix(0.04938271604938272,0,0,0.04938271604938272,10.814814814814815,0)" xlink:href="#ac"/><use transform="matrix(0.04938271604938272,0,0,0.04938271604938272,17.728395061728396,0)" xlink:href="#ai"/><use transform="matrix(0.04938271604938272,0,0,0.04938271604938272,22.666666666666668,0)" xlink:href="#am"/><use transform="matrix(0.04938271604938272,0,0,0.04938271604938272,32.543209876543216,0)" xlink:href="#an"/><use transform="matrix(0.04938271604938272,0,0,0.04938271604938272,42.41975308641976,0)" xlink:href="#ac"/></g><path fill="#333" d="M110-194c64 0 96 36 96 99 0 64-35 99-97 99-61 0-95-36-95-99 0-62 34-99 96-99zm-1 164c35 0 45-28 45-65 0-40-10-65-43-65-34 0-45 26-45 65 0 36 10 65 43 65" id="ao"/><g id="m"><use transform="matrix(0.04938271604938272,0,0,0.04938271604938272,0,0)" xlink:href="#aa"/><use transform="matrix(0.04938271604938272,0,0,0.04938271604938272,10.814814814814815,0)" xlink:href="#ao"/><use transform="matrix(0.04938271604938272,0,0,0.04938271604938272,21.62962962962963,0)" xlink:href="#al"/></g><path fill="#333" d="M128-127c34 4 56 21 59 58 7 91-148 94-172 28-4-9-6-17-7-26l51-5c1 24 16 35 40 36 23 0 39-12 38-36-1-31-31-36-65-34v-40c32 2 59-3 59-33 0-20-13-33-34-33s-33 13-35 32l-50-3c6-44 37-68 86-68 50 0 83 20 83 66 0 35-22 52-53 58" id="ap"/><g id="n"><use transform="matrix(0.04938271604938272,0,0,0.04938271604938272,0,0)" xlink:href="#ap"/><use transform="matrix(0.04938271604938272,0,0,0.04938271604938272,9.876543209876544,0)" xlink:href="#Y"/></g><path fill="#333" d="M84 4C32 4 15-41 15-95c0-55 18-99 73-99 29 0 47 12 58 34l2-30h48l-1 265h-49V-32C136-9 114 4 84 4zm21-34c32 0 41-29 41-66 0-36-9-64-40-64-33 0-39 30-40 65 0 43 13 65 39 65" id="aq"/><g id="o"><use transform="matrix(0.04938271604938272,0,0,0.04938271604938272,0,0)" xlink:href="#ac"/><use transform="matrix(0.04938271604938272,0,0,0.04938271604938272,6.913580246913581,0)" xlink:href="#an"/><use transform="matrix(0.04938271604938272,0,0,0.04938271604938272,16.790123456790127,0)" xlink:href="#aq"/><use transform="matrix(0.04938271604938272,0,0,0.04938271604938272,27.604938271604947,0)" xlink:href="#af"/><use transform="matrix(0.04938271604938272,0,0,0.04938271604938272,38.41975308641976,0)" xlink:href="#an"/><use transform="matrix(0.04938271604938272,0,0,0.04938271604938272,48.296296296296305,0)" xlink:href="#Z"/><use transform="matrix(0.04938271604938272,0,0,0.04938271604938272,58.17283950617284,0)" xlink:href="#aj"/></g><path fill="#333" d="M144 0l-44-69L55 0H2l70-98-66-92h53l41 62 40-62h54l-67 91 71 99h-54" id="ar"/><path fill="#333" d="M190-63c-7 42-38 67-86 67-59 0-84-38-90-98-12-110 154-137 174-36l-49 2c-2-19-15-32-35-32-30 0-35 28-38 64-6 74 65 87 74 30" id="as"/><g id="p"><use transform="matrix(0.04938271604938272,0,0,0.04938271604938272,0,0)" xlink:href="#an"/><use transform="matrix(0.04938271604938272,0,0,0.04938271604938272,9.876543209876544,0)" xlink:href="#ar"/><use transform="matrix(0.04938271604938272,0,0,0.04938271604938272,19.75308641975309,0)" xlink:href="#an"/><use transform="matrix(0.04938271604938272,0,0,0.04938271604938272,29.629629629629633,0)" xlink:href="#as"/><use transform="matrix(0.04938271604938272,0,0,0.04938271604938272,39.50617283950618,0)" xlink:href="#af"/><use transform="matrix(0.04938271604938272,0,0,0.04938271604938272,50.320987654320994,0)" xlink:href="#aj"/><use transform="matrix(0.04938271604938272,0,0,0.04938271604938272,56.19753086419754,0)" xlink:href="#ao"/><use transform="matrix(0.04938271604938272,0,0,0.04938271604938272,67.01234567901236,0)" xlink:href="#ac"/></g><g id="q"><use transform="matrix(0.04938271604938272,0,0,0.04938271604938272,0,0)" xlink:href="#aa"/><use transform="matrix(0.04938271604938272,0,0,0.04938271604938272,10.814814814814815,0)" xlink:href="#ao"/><use transform="matrix(0.04938271604938272,0,0,0.04938271604938272,21.62962962962963,0)" xlink:href="#al"/><use transform="matrix(0.04938271604938272,0,0,0.04938271604938272,32.44444444444444,0)" xlink:href="#Z"/></g><path fill="#333" d="M139-81c0-46-55-55-73-27H18l9-140h149v37H72l-4 63c44-38 133-4 122 66C201 21 21 35 11-62l49-4c5 18 15 30 39 30 26 0 40-18 40-45" id="at"/><g id="r"><use transform="matrix(0.04938271604938272,0,0,0.04938271604938272,0,0)" xlink:href="#at"/><use transform="matrix(0.04938271604938272,0,0,0.04938271604938272,9.876543209876544,0)" xlink:href="#Y"/></g><path fill="#333" d="M175 0L67-191c6 58 2 128 3 191H24v-248h59L193-55c-6-58-2-129-3-193h46V0h-61" id="au"/><path fill="#333" d="M121-226c-27-7-43 5-38 36h38v33H83V0H34v-157H6v-33h28c-9-59 32-81 87-68v32" id="av"/><path fill="#333" d="M123 10C108 53 80 86 19 72V37c35 8 53-11 59-39L3-190h52l48 148c12-52 28-100 44-148h51" id="aw"/><g id="s"><use transform="matrix(0.04938271604938272,0,0,0.04938271604938272,0,0)" xlink:href="#au"/><use transform="matrix(0.04938271604938272,0,0,0.04938271604938272,12.790123456790125,0)" xlink:href="#ao"/><use transform="matrix(0.04938271604938272,0,0,0.04938271604938272,23.60493827160494,0)" xlink:href="#aj"/><use transform="matrix(0.04938271604938272,0,0,0.04938271604938272,29.481481481481485,0)" xlink:href="#ai"/><use transform="matrix(0.04938271604938272,0,0,0.04938271604938272,34.41975308641976,0)" xlink:href="#av"/><use transform="matrix(0.04938271604938272,0,0,0.04938271604938272,40.296296296296305,0)" xlink:href="#aw"/></g><g id="t"><use transform="matrix(0.04938271604938272,0,0,0.04938271604938272,0,0)" xlink:href="#ao"/><use transform="matrix(0.04938271604938272,0,0,0.04938271604938272,10.814814814814815,0)" xlink:href="#av"/></g><path fill="#333" d="M135-194c87-1 58 113 63 194h-50c-7-57 23-157-34-157-59 0-34 97-39 157H25l-1-190h47c2 12-1 28 3 38 12-26 28-41 61-42" id="ax"/><path fill="#333" d="M231 0h-52l-39-155L100 0H48L-1-190h46L77-45c9-52 24-97 36-145h53l37 145 32-145h46" id="ay"/><g id="u"><use transform="matrix(0.04938271604938272,0,0,0.04938271604938272,0,0)" xlink:href="#ax"/><use transform="matrix(0.04938271604938272,0,0,0.04938271604938272,10.814814814814815,0)" xlink:href="#an"/><use transform="matrix(0.04938271604938272,0,0,0.04938271604938272,20.69135802469136,0)" xlink:href="#ay"/></g><g id="v"><use transform="matrix(0.04938271604938272,0,0,0.04938271604938272,0,0)" xlink:href="#an"/><use transform="matrix(0.04938271604938272,0,0,0.04938271604938272,9.876543209876544,0)" xlink:href="#ar"/><use transform="matrix(0.04938271604938272,0,0,0.04938271604938272,19.75308641975309,0)" xlink:href="#an"/><use transform="matrix(0.04938271604938272,0,0,0.04938271604938272,29.629629629629633,0)" xlink:href="#as"/><use transform="matrix(0.04938271604938272,0,0,0.04938271604938272,39.50617283950618,0)" xlink:href="#af"/><use transform="matrix(0.04938271604938272,0,0,0.04938271604938272,50.320987654320994,0)" xlink:href="#aj"/><use transform="matrix(0.04938271604938272,0,0,0.04938271604938272,56.19753086419754,0)" xlink:href="#ao"/><use transform="matrix(0.04938271604938272,0,0,0.04938271604938272,67.01234567901236,0)" xlink:href="#ac"/></g><g id="w"><use transform="matrix(0.06172839506172839,0,0,0.06172839506172839,0,0)" xlink:href="#M"/><use transform="matrix(0.06172839506172839,0,0,0.06172839506172839,15.987654320987653,0)" xlink:href="#K"/><use transform="matrix(0.06172839506172839,0,0,0.06172839506172839,23.333333333333332,0)" xlink:href="#U"/><use transform="matrix(0.06172839506172839,0,0,0.06172839506172839,28.209876543209873,0)" xlink:href="#L"/><use transform="matrix(0.06172839506172839,0,0,0.06172839506172839,39.32098765432099,0)" xlink:href="#J"/><use transform="matrix(0.06172839506172839,0,0,0.06172839506172839,51.666666666666664,0)" xlink:href="#K"/></g><path fill="#333" d="M30 0v-248h187v28H63v79h144v27H63v87h162V0H30" id="az"/><path fill="#333" d="M141 0L90-78 38 0H4l68-98-65-92h35l48 74 47-74h35l-64 92 68 98h-35" id="aA"/><path fill="#333" d="M84 4C-5 8 30-112 23-190h32v120c0 31 7 50 39 49 72-2 45-101 50-169h31l1 190h-30c-1-10 1-25-2-33-11 22-28 36-60 37" id="aB"/><path fill="#333" d="M100-194c62-1 85 37 85 99 1 63-27 99-86 99S16-35 15-95c0-66 28-99 85-99zM99-20c44 1 53-31 53-75 0-43-8-75-51-75s-53 32-53 75 10 74 51 75" id="aC"/><g id="x"><use transform="matrix(0.06172839506172839,0,0,0.06172839506172839,0,0)" xlink:href="#az"/><use transform="matrix(0.06172839506172839,0,0,0.06172839506172839,14.814814814814813,0)" xlink:href="#aA"/><use transform="matrix(0.06172839506172839,0,0,0.06172839506172839,25.925925925925924,0)" xlink:href="#J"/><use transform="matrix(0.06172839506172839,0,0,0.06172839506172839,38.2716049382716,0)" xlink:href="#R"/><use transform="matrix(0.06172839506172839,0,0,0.06172839506172839,49.38271604938271,0)" xlink:href="#aB"/><use transform="matrix(0.06172839506172839,0,0,0.06172839506172839,61.728395061728385,0)" xlink:href="#W"/><use transform="matrix(0.06172839506172839,0,0,0.06172839506172839,67.90123456790123,0)" xlink:href="#aC"/><use transform="matrix(0.06172839506172839,0,0,0.06172839506172839,80.24691358024691,0)" xlink:href="#K"/><use transform="matrix(0.06172839506172839,0,0,0.06172839506172839,87.5925925925926,0)" xlink:href="#E"/></g><path fill="#333" d="M115-159c48 0 72 30 72 78 0 54-30 85-83 85-64 0-91-50-91-122 0-98 58-163 141-120 15 8 21 24 27 44l-47 6c-5-31-48-31-61-4-7 14-11 33-11 60 9-17 28-27 53-27zM102-35c24 0 36-20 36-45s-11-43-37-43c-23 0-36 14-36 38 0 27 11 50 37 50" id="aD"/><g id="y"><use transform="matrix(0.04938271604938272,0,0,0.04938271604938272,0,0)" xlink:href="#aD"/><use transform="matrix(0.04938271604938272,0,0,0.04938271604938272,9.876543209876544,0)" xlink:href="#Y"/></g><path fill="#333" d="M114-157C55-157 80-60 75 0H25v-261h50l-1 109c12-26 28-41 61-42 86-1 58 113 63 194h-50c-7-57 23-157-34-157" id="aE"/><path fill="#333" d="M25 0v-261h50V0H25" id="aF"/><g id="z"><use transform="matrix(0.04938271604938272,0,0,0.04938271604938272,0,0)" xlink:href="#Z"/><use transform="matrix(0.04938271604938272,0,0,0.04938271604938272,9.876543209876544,0)" xlink:href="#as"/><use transform="matrix(0.04938271604938272,0,0,0.04938271604938272,19.75308641975309,0)" xlink:href="#aE"/><use transform="matrix(0.04938271604938272,0,0,0.04938271604938272,30.567901234567906,0)" xlink:href="#an"/><use transform="matrix(0.04938271604938272,0,0,0.04938271604938272,40.44444444444445,0)" xlink:href="#al"/><use transform="matrix(0.04938271604938272,0,0,0.04938271604938272,51.25925925925927,0)" xlink:href="#af"/><use transform="matrix(0.04938271604938272,0,0,0.04938271604938272,62.074074074074076,0)" xlink:href="#aF"/><use transform="matrix(0.04938271604938272,0,0,0.04938271604938272,67.01234567901236,0)" xlink:href="#an"/></g><g id="A"><use transform="matrix(0.04938271604938272,0,0,0.04938271604938272,0,0)" xlink:href="#aj"/><use transform="matrix(0.04938271604938272,0,0,0.04938271604938272,5.8765432098765435,0)" xlink:href="#ab"/><use transform="matrix(0.04938271604938272,0,0,0.04938271604938272,15.753086419753087,0)" xlink:href="#Z"/><use transform="matrix(0.04938271604938272,0,0,0.04938271604938272,25.629629629629633,0)" xlink:href="#ad"/><use transform="matrix(0.04938271604938272,0,0,0.04938271604938272,35.50617283950618,0)" xlink:href="#Z"/></g><path fill="#333" d="M165-50V0h-47v-50H5v-38l105-160h55v161h33v37h-33zm-47-37l2-116L46-87h72" id="aG"/><g id="B"><use transform="matrix(0.04938271604938272,0,0,0.04938271604938272,0,0)" xlink:href="#aG"/><use transform="matrix(0.04938271604938272,0,0,0.04938271604938272,9.876543209876544,0)" xlink:href="#Y"/></g></defs></g></svg>